G75*
%MOIN*%
%OFA0B0*%
%FSLAX25Y25*%
%IPPOS*%
%LPD*%
%AMOC8*
5,1,8,0,0,1.08239X$1,22.5*
%
%ADD10C,0.00000*%
D10*
X0029432Y0001500D02*
X0029432Y0106500D01*
X0069432Y0106500D01*
X0069432Y0001500D01*
X0029432Y0001500D01*
X0031243Y0082142D02*
X0031243Y0086472D01*
X0032425Y0087653D02*
X0032491Y0087651D01*
X0032557Y0087646D01*
X0032623Y0087636D01*
X0032688Y0087623D01*
X0032752Y0087607D01*
X0032815Y0087587D01*
X0032877Y0087563D01*
X0032937Y0087536D01*
X0032996Y0087506D01*
X0033053Y0087472D01*
X0033108Y0087435D01*
X0033161Y0087395D01*
X0033212Y0087353D01*
X0033260Y0087307D01*
X0033306Y0087259D01*
X0033348Y0087208D01*
X0033388Y0087155D01*
X0033425Y0087100D01*
X0033459Y0087043D01*
X0033489Y0086984D01*
X0033516Y0086924D01*
X0033540Y0086862D01*
X0033560Y0086799D01*
X0033576Y0086735D01*
X0033589Y0086670D01*
X0033599Y0086604D01*
X0033604Y0086538D01*
X0033606Y0086472D01*
X0033606Y0082142D01*
X0032425Y0080961D02*
X0032359Y0080963D01*
X0032293Y0080968D01*
X0032227Y0080978D01*
X0032162Y0080991D01*
X0032098Y0081007D01*
X0032035Y0081027D01*
X0031973Y0081051D01*
X0031913Y0081078D01*
X0031854Y0081108D01*
X0031797Y0081142D01*
X0031742Y0081179D01*
X0031689Y0081219D01*
X0031638Y0081261D01*
X0031590Y0081307D01*
X0031544Y0081355D01*
X0031502Y0081406D01*
X0031462Y0081459D01*
X0031425Y0081514D01*
X0031391Y0081571D01*
X0031361Y0081630D01*
X0031334Y0081690D01*
X0031310Y0081752D01*
X0031290Y0081815D01*
X0031274Y0081879D01*
X0031261Y0081944D01*
X0031251Y0082010D01*
X0031246Y0082076D01*
X0031244Y0082142D01*
X0032425Y0080961D02*
X0032491Y0080963D01*
X0032557Y0080968D01*
X0032623Y0080978D01*
X0032688Y0080991D01*
X0032752Y0081007D01*
X0032815Y0081027D01*
X0032877Y0081051D01*
X0032937Y0081078D01*
X0032996Y0081108D01*
X0033053Y0081142D01*
X0033108Y0081179D01*
X0033161Y0081219D01*
X0033212Y0081261D01*
X0033260Y0081307D01*
X0033306Y0081355D01*
X0033348Y0081406D01*
X0033388Y0081459D01*
X0033425Y0081514D01*
X0033459Y0081571D01*
X0033489Y0081630D01*
X0033516Y0081690D01*
X0033540Y0081752D01*
X0033560Y0081815D01*
X0033576Y0081879D01*
X0033589Y0081944D01*
X0033599Y0082010D01*
X0033604Y0082076D01*
X0033606Y0082142D01*
X0031244Y0086472D02*
X0031246Y0086538D01*
X0031251Y0086604D01*
X0031261Y0086670D01*
X0031274Y0086735D01*
X0031290Y0086799D01*
X0031310Y0086862D01*
X0031334Y0086924D01*
X0031361Y0086984D01*
X0031391Y0087043D01*
X0031425Y0087100D01*
X0031462Y0087155D01*
X0031502Y0087208D01*
X0031544Y0087259D01*
X0031590Y0087307D01*
X0031638Y0087353D01*
X0031689Y0087395D01*
X0031742Y0087435D01*
X0031797Y0087472D01*
X0031854Y0087506D01*
X0031913Y0087536D01*
X0031973Y0087563D01*
X0032035Y0087587D01*
X0032098Y0087607D01*
X0032162Y0087623D01*
X0032227Y0087636D01*
X0032293Y0087646D01*
X0032359Y0087651D01*
X0032425Y0087653D01*
X0036774Y0086276D02*
X0036776Y0086347D01*
X0036782Y0086418D01*
X0036792Y0086489D01*
X0036806Y0086558D01*
X0036823Y0086627D01*
X0036845Y0086695D01*
X0036870Y0086762D01*
X0036899Y0086827D01*
X0036931Y0086890D01*
X0036967Y0086952D01*
X0037006Y0087011D01*
X0037049Y0087068D01*
X0037094Y0087123D01*
X0037143Y0087175D01*
X0037194Y0087224D01*
X0037248Y0087270D01*
X0037305Y0087314D01*
X0037363Y0087354D01*
X0037424Y0087390D01*
X0037487Y0087424D01*
X0037552Y0087453D01*
X0037618Y0087479D01*
X0037686Y0087502D01*
X0037754Y0087520D01*
X0037824Y0087535D01*
X0037894Y0087546D01*
X0037965Y0087553D01*
X0038036Y0087556D01*
X0038107Y0087555D01*
X0038178Y0087550D01*
X0038249Y0087541D01*
X0038319Y0087528D01*
X0038388Y0087512D01*
X0038456Y0087491D01*
X0038523Y0087467D01*
X0038589Y0087439D01*
X0038652Y0087407D01*
X0038714Y0087372D01*
X0038774Y0087334D01*
X0038832Y0087292D01*
X0038887Y0087248D01*
X0038940Y0087200D01*
X0038990Y0087149D01*
X0039037Y0087096D01*
X0039081Y0087040D01*
X0039122Y0086982D01*
X0039160Y0086921D01*
X0039194Y0086859D01*
X0039224Y0086794D01*
X0039251Y0086729D01*
X0039275Y0086661D01*
X0039294Y0086593D01*
X0039310Y0086524D01*
X0039322Y0086453D01*
X0039330Y0086383D01*
X0039334Y0086312D01*
X0039334Y0086240D01*
X0039330Y0086169D01*
X0039322Y0086099D01*
X0039310Y0086028D01*
X0039294Y0085959D01*
X0039275Y0085891D01*
X0039251Y0085823D01*
X0039224Y0085758D01*
X0039194Y0085693D01*
X0039160Y0085631D01*
X0039122Y0085570D01*
X0039081Y0085512D01*
X0039037Y0085456D01*
X0038990Y0085403D01*
X0038940Y0085352D01*
X0038887Y0085304D01*
X0038832Y0085260D01*
X0038774Y0085218D01*
X0038714Y0085180D01*
X0038652Y0085145D01*
X0038589Y0085113D01*
X0038523Y0085085D01*
X0038456Y0085061D01*
X0038388Y0085040D01*
X0038319Y0085024D01*
X0038249Y0085011D01*
X0038178Y0085002D01*
X0038107Y0084997D01*
X0038036Y0084996D01*
X0037965Y0084999D01*
X0037894Y0085006D01*
X0037824Y0085017D01*
X0037754Y0085032D01*
X0037686Y0085050D01*
X0037618Y0085073D01*
X0037552Y0085099D01*
X0037487Y0085128D01*
X0037424Y0085162D01*
X0037363Y0085198D01*
X0037305Y0085238D01*
X0037248Y0085282D01*
X0037194Y0085328D01*
X0037143Y0085377D01*
X0037094Y0085429D01*
X0037049Y0085484D01*
X0037006Y0085541D01*
X0036967Y0085600D01*
X0036931Y0085662D01*
X0036899Y0085725D01*
X0036870Y0085790D01*
X0036845Y0085857D01*
X0036823Y0085925D01*
X0036806Y0085994D01*
X0036792Y0086063D01*
X0036782Y0086134D01*
X0036776Y0086205D01*
X0036774Y0086276D01*
X0033606Y0099583D02*
X0033606Y0101945D01*
X0033604Y0102011D01*
X0033599Y0102077D01*
X0033589Y0102143D01*
X0033576Y0102208D01*
X0033560Y0102272D01*
X0033540Y0102335D01*
X0033516Y0102397D01*
X0033489Y0102457D01*
X0033459Y0102516D01*
X0033425Y0102573D01*
X0033388Y0102628D01*
X0033348Y0102681D01*
X0033306Y0102732D01*
X0033260Y0102780D01*
X0033212Y0102826D01*
X0033161Y0102868D01*
X0033108Y0102908D01*
X0033053Y0102945D01*
X0032996Y0102979D01*
X0032937Y0103009D01*
X0032877Y0103036D01*
X0032815Y0103060D01*
X0032752Y0103080D01*
X0032688Y0103096D01*
X0032623Y0103109D01*
X0032557Y0103119D01*
X0032491Y0103124D01*
X0032425Y0103126D01*
X0032359Y0103124D01*
X0032293Y0103119D01*
X0032227Y0103109D01*
X0032162Y0103096D01*
X0032098Y0103080D01*
X0032035Y0103060D01*
X0031973Y0103036D01*
X0031913Y0103009D01*
X0031854Y0102979D01*
X0031797Y0102945D01*
X0031742Y0102908D01*
X0031689Y0102868D01*
X0031638Y0102826D01*
X0031590Y0102780D01*
X0031544Y0102732D01*
X0031502Y0102681D01*
X0031462Y0102628D01*
X0031425Y0102573D01*
X0031391Y0102516D01*
X0031361Y0102457D01*
X0031334Y0102397D01*
X0031310Y0102335D01*
X0031290Y0102272D01*
X0031274Y0102208D01*
X0031261Y0102143D01*
X0031251Y0102077D01*
X0031246Y0102011D01*
X0031244Y0101945D01*
X0031243Y0101945D02*
X0031243Y0099583D01*
X0031244Y0099583D02*
X0031246Y0099517D01*
X0031251Y0099451D01*
X0031261Y0099385D01*
X0031274Y0099320D01*
X0031290Y0099256D01*
X0031310Y0099193D01*
X0031334Y0099131D01*
X0031361Y0099071D01*
X0031391Y0099012D01*
X0031425Y0098955D01*
X0031462Y0098900D01*
X0031502Y0098847D01*
X0031544Y0098796D01*
X0031590Y0098748D01*
X0031638Y0098702D01*
X0031689Y0098660D01*
X0031742Y0098620D01*
X0031797Y0098583D01*
X0031854Y0098549D01*
X0031913Y0098519D01*
X0031973Y0098492D01*
X0032035Y0098468D01*
X0032098Y0098448D01*
X0032162Y0098432D01*
X0032227Y0098419D01*
X0032293Y0098409D01*
X0032359Y0098404D01*
X0032425Y0098402D01*
X0032491Y0098404D01*
X0032557Y0098409D01*
X0032623Y0098419D01*
X0032688Y0098432D01*
X0032752Y0098448D01*
X0032815Y0098468D01*
X0032877Y0098492D01*
X0032937Y0098519D01*
X0032996Y0098549D01*
X0033053Y0098583D01*
X0033108Y0098620D01*
X0033161Y0098660D01*
X0033212Y0098702D01*
X0033260Y0098748D01*
X0033306Y0098796D01*
X0033348Y0098847D01*
X0033388Y0098900D01*
X0033425Y0098955D01*
X0033459Y0099012D01*
X0033489Y0099071D01*
X0033516Y0099131D01*
X0033540Y0099193D01*
X0033560Y0099256D01*
X0033576Y0099320D01*
X0033589Y0099385D01*
X0033599Y0099451D01*
X0033604Y0099517D01*
X0033606Y0099583D01*
X0059530Y0086276D02*
X0059532Y0086347D01*
X0059538Y0086418D01*
X0059548Y0086489D01*
X0059562Y0086558D01*
X0059579Y0086627D01*
X0059601Y0086695D01*
X0059626Y0086762D01*
X0059655Y0086827D01*
X0059687Y0086890D01*
X0059723Y0086952D01*
X0059762Y0087011D01*
X0059805Y0087068D01*
X0059850Y0087123D01*
X0059899Y0087175D01*
X0059950Y0087224D01*
X0060004Y0087270D01*
X0060061Y0087314D01*
X0060119Y0087354D01*
X0060180Y0087390D01*
X0060243Y0087424D01*
X0060308Y0087453D01*
X0060374Y0087479D01*
X0060442Y0087502D01*
X0060510Y0087520D01*
X0060580Y0087535D01*
X0060650Y0087546D01*
X0060721Y0087553D01*
X0060792Y0087556D01*
X0060863Y0087555D01*
X0060934Y0087550D01*
X0061005Y0087541D01*
X0061075Y0087528D01*
X0061144Y0087512D01*
X0061212Y0087491D01*
X0061279Y0087467D01*
X0061345Y0087439D01*
X0061408Y0087407D01*
X0061470Y0087372D01*
X0061530Y0087334D01*
X0061588Y0087292D01*
X0061643Y0087248D01*
X0061696Y0087200D01*
X0061746Y0087149D01*
X0061793Y0087096D01*
X0061837Y0087040D01*
X0061878Y0086982D01*
X0061916Y0086921D01*
X0061950Y0086859D01*
X0061980Y0086794D01*
X0062007Y0086729D01*
X0062031Y0086661D01*
X0062050Y0086593D01*
X0062066Y0086524D01*
X0062078Y0086453D01*
X0062086Y0086383D01*
X0062090Y0086312D01*
X0062090Y0086240D01*
X0062086Y0086169D01*
X0062078Y0086099D01*
X0062066Y0086028D01*
X0062050Y0085959D01*
X0062031Y0085891D01*
X0062007Y0085823D01*
X0061980Y0085758D01*
X0061950Y0085693D01*
X0061916Y0085631D01*
X0061878Y0085570D01*
X0061837Y0085512D01*
X0061793Y0085456D01*
X0061746Y0085403D01*
X0061696Y0085352D01*
X0061643Y0085304D01*
X0061588Y0085260D01*
X0061530Y0085218D01*
X0061470Y0085180D01*
X0061408Y0085145D01*
X0061345Y0085113D01*
X0061279Y0085085D01*
X0061212Y0085061D01*
X0061144Y0085040D01*
X0061075Y0085024D01*
X0061005Y0085011D01*
X0060934Y0085002D01*
X0060863Y0084997D01*
X0060792Y0084996D01*
X0060721Y0084999D01*
X0060650Y0085006D01*
X0060580Y0085017D01*
X0060510Y0085032D01*
X0060442Y0085050D01*
X0060374Y0085073D01*
X0060308Y0085099D01*
X0060243Y0085128D01*
X0060180Y0085162D01*
X0060119Y0085198D01*
X0060061Y0085238D01*
X0060004Y0085282D01*
X0059950Y0085328D01*
X0059899Y0085377D01*
X0059850Y0085429D01*
X0059805Y0085484D01*
X0059762Y0085541D01*
X0059723Y0085600D01*
X0059687Y0085662D01*
X0059655Y0085725D01*
X0059626Y0085790D01*
X0059601Y0085857D01*
X0059579Y0085925D01*
X0059562Y0085994D01*
X0059548Y0086063D01*
X0059538Y0086134D01*
X0059532Y0086205D01*
X0059530Y0086276D01*
X0065259Y0086472D02*
X0065259Y0082142D01*
X0065261Y0082076D01*
X0065266Y0082010D01*
X0065276Y0081944D01*
X0065289Y0081879D01*
X0065305Y0081815D01*
X0065325Y0081752D01*
X0065349Y0081690D01*
X0065376Y0081630D01*
X0065406Y0081571D01*
X0065440Y0081514D01*
X0065477Y0081459D01*
X0065517Y0081406D01*
X0065559Y0081355D01*
X0065605Y0081307D01*
X0065653Y0081261D01*
X0065704Y0081219D01*
X0065757Y0081179D01*
X0065812Y0081142D01*
X0065869Y0081108D01*
X0065928Y0081078D01*
X0065988Y0081051D01*
X0066050Y0081027D01*
X0066113Y0081007D01*
X0066177Y0080991D01*
X0066242Y0080978D01*
X0066308Y0080968D01*
X0066374Y0080963D01*
X0066440Y0080961D01*
X0066506Y0080963D01*
X0066572Y0080968D01*
X0066638Y0080978D01*
X0066703Y0080991D01*
X0066767Y0081007D01*
X0066830Y0081027D01*
X0066892Y0081051D01*
X0066952Y0081078D01*
X0067011Y0081108D01*
X0067068Y0081142D01*
X0067123Y0081179D01*
X0067176Y0081219D01*
X0067227Y0081261D01*
X0067275Y0081307D01*
X0067321Y0081355D01*
X0067363Y0081406D01*
X0067403Y0081459D01*
X0067440Y0081514D01*
X0067474Y0081571D01*
X0067504Y0081630D01*
X0067531Y0081690D01*
X0067555Y0081752D01*
X0067575Y0081815D01*
X0067591Y0081879D01*
X0067604Y0081944D01*
X0067614Y0082010D01*
X0067619Y0082076D01*
X0067621Y0082142D01*
X0067621Y0086472D01*
X0067619Y0086538D01*
X0067614Y0086604D01*
X0067604Y0086670D01*
X0067591Y0086735D01*
X0067575Y0086799D01*
X0067555Y0086862D01*
X0067531Y0086924D01*
X0067504Y0086984D01*
X0067474Y0087043D01*
X0067440Y0087100D01*
X0067403Y0087155D01*
X0067363Y0087208D01*
X0067321Y0087259D01*
X0067275Y0087307D01*
X0067227Y0087353D01*
X0067176Y0087395D01*
X0067123Y0087435D01*
X0067068Y0087472D01*
X0067011Y0087506D01*
X0066952Y0087536D01*
X0066892Y0087563D01*
X0066830Y0087587D01*
X0066767Y0087607D01*
X0066703Y0087623D01*
X0066638Y0087636D01*
X0066572Y0087646D01*
X0066506Y0087651D01*
X0066440Y0087653D01*
X0066374Y0087651D01*
X0066308Y0087646D01*
X0066242Y0087636D01*
X0066177Y0087623D01*
X0066113Y0087607D01*
X0066050Y0087587D01*
X0065988Y0087563D01*
X0065928Y0087536D01*
X0065869Y0087506D01*
X0065812Y0087472D01*
X0065757Y0087435D01*
X0065704Y0087395D01*
X0065653Y0087353D01*
X0065605Y0087307D01*
X0065559Y0087259D01*
X0065517Y0087208D01*
X0065477Y0087155D01*
X0065440Y0087100D01*
X0065406Y0087043D01*
X0065376Y0086984D01*
X0065349Y0086924D01*
X0065325Y0086862D01*
X0065305Y0086799D01*
X0065289Y0086735D01*
X0065276Y0086670D01*
X0065266Y0086604D01*
X0065261Y0086538D01*
X0065259Y0086472D01*
X0065259Y0099583D02*
X0065259Y0101945D01*
X0066440Y0103126D02*
X0066506Y0103124D01*
X0066572Y0103119D01*
X0066638Y0103109D01*
X0066703Y0103096D01*
X0066767Y0103080D01*
X0066830Y0103060D01*
X0066892Y0103036D01*
X0066952Y0103009D01*
X0067011Y0102979D01*
X0067068Y0102945D01*
X0067123Y0102908D01*
X0067176Y0102868D01*
X0067227Y0102826D01*
X0067275Y0102780D01*
X0067321Y0102732D01*
X0067363Y0102681D01*
X0067403Y0102628D01*
X0067440Y0102573D01*
X0067474Y0102516D01*
X0067504Y0102457D01*
X0067531Y0102397D01*
X0067555Y0102335D01*
X0067575Y0102272D01*
X0067591Y0102208D01*
X0067604Y0102143D01*
X0067614Y0102077D01*
X0067619Y0102011D01*
X0067621Y0101945D01*
X0067621Y0099583D01*
X0066440Y0098402D02*
X0066374Y0098404D01*
X0066308Y0098409D01*
X0066242Y0098419D01*
X0066177Y0098432D01*
X0066113Y0098448D01*
X0066050Y0098468D01*
X0065988Y0098492D01*
X0065928Y0098519D01*
X0065869Y0098549D01*
X0065812Y0098583D01*
X0065757Y0098620D01*
X0065704Y0098660D01*
X0065653Y0098702D01*
X0065605Y0098748D01*
X0065559Y0098796D01*
X0065517Y0098847D01*
X0065477Y0098900D01*
X0065440Y0098955D01*
X0065406Y0099012D01*
X0065376Y0099071D01*
X0065349Y0099131D01*
X0065325Y0099193D01*
X0065305Y0099256D01*
X0065289Y0099320D01*
X0065276Y0099385D01*
X0065266Y0099451D01*
X0065261Y0099517D01*
X0065259Y0099583D01*
X0066440Y0098402D02*
X0066506Y0098404D01*
X0066572Y0098409D01*
X0066638Y0098419D01*
X0066703Y0098432D01*
X0066767Y0098448D01*
X0066830Y0098468D01*
X0066892Y0098492D01*
X0066952Y0098519D01*
X0067011Y0098549D01*
X0067068Y0098583D01*
X0067123Y0098620D01*
X0067176Y0098660D01*
X0067227Y0098702D01*
X0067275Y0098748D01*
X0067321Y0098796D01*
X0067363Y0098847D01*
X0067403Y0098900D01*
X0067440Y0098955D01*
X0067474Y0099012D01*
X0067504Y0099071D01*
X0067531Y0099131D01*
X0067555Y0099193D01*
X0067575Y0099256D01*
X0067591Y0099320D01*
X0067604Y0099385D01*
X0067614Y0099451D01*
X0067619Y0099517D01*
X0067621Y0099583D01*
X0065259Y0101945D02*
X0065261Y0102011D01*
X0065266Y0102077D01*
X0065276Y0102143D01*
X0065289Y0102208D01*
X0065305Y0102272D01*
X0065325Y0102335D01*
X0065349Y0102397D01*
X0065376Y0102457D01*
X0065406Y0102516D01*
X0065440Y0102573D01*
X0065477Y0102628D01*
X0065517Y0102681D01*
X0065559Y0102732D01*
X0065605Y0102780D01*
X0065653Y0102826D01*
X0065704Y0102868D01*
X0065757Y0102908D01*
X0065812Y0102945D01*
X0065869Y0102979D01*
X0065928Y0103009D01*
X0065988Y0103036D01*
X0066050Y0103060D01*
X0066113Y0103080D01*
X0066177Y0103096D01*
X0066242Y0103109D01*
X0066308Y0103119D01*
X0066374Y0103124D01*
X0066440Y0103126D01*
M02*
