G75*
%MOIN*%
%OFA0B0*%
%FSLAX25Y25*%
%IPPOS*%
%LPD*%
%AMOC8*
5,1,8,0,0,1.08239X$1,22.5*
%
%ADD10C,0.00197*%
%ADD11C,0.01244*%
%ADD12R,0.05118X0.04724*%
%ADD13R,0.02264X0.04528*%
%ADD14R,0.01083X0.04528*%
%ADD15C,0.04362*%
%ADD16R,0.02756X0.01654*%
%ADD17R,0.08858X0.09252*%
%ADD18C,0.06600*%
%ADD19R,0.04724X0.05118*%
%ADD20R,0.04724X0.04724*%
%ADD21C,0.01000*%
%ADD22C,0.01600*%
%ADD23C,0.03200*%
%ADD24C,0.03569*%
%ADD25C,0.00800*%
%ADD26C,0.03150*%
D10*
X0036004Y0062669D02*
X0036004Y0063457D01*
X0036004Y0062669D02*
X0033050Y0062669D01*
X0033050Y0063457D01*
X0036004Y0063457D01*
X0036004Y0062865D02*
X0033050Y0062865D01*
X0033050Y0063061D02*
X0036004Y0063061D01*
X0036004Y0063257D02*
X0033050Y0063257D01*
X0033050Y0063453D02*
X0036004Y0063453D01*
X0036004Y0064637D02*
X0036004Y0065425D01*
X0036004Y0064637D02*
X0033050Y0064637D01*
X0033050Y0065425D01*
X0036004Y0065425D01*
X0036004Y0064833D02*
X0033050Y0064833D01*
X0033050Y0065029D02*
X0036004Y0065029D01*
X0036004Y0065225D02*
X0033050Y0065225D01*
X0033050Y0065421D02*
X0036004Y0065421D01*
X0036004Y0066606D02*
X0036004Y0067394D01*
X0036004Y0066606D02*
X0033050Y0066606D01*
X0033050Y0067394D01*
X0036004Y0067394D01*
X0036004Y0066802D02*
X0033050Y0066802D01*
X0033050Y0066998D02*
X0036004Y0066998D01*
X0036004Y0067194D02*
X0033050Y0067194D01*
X0033050Y0067390D02*
X0036004Y0067390D01*
X0036004Y0068575D02*
X0036004Y0069363D01*
X0036004Y0068575D02*
X0033050Y0068575D01*
X0033050Y0069363D01*
X0036004Y0069363D01*
X0036004Y0068771D02*
X0033050Y0068771D01*
X0033050Y0068967D02*
X0036004Y0068967D01*
X0036004Y0069163D02*
X0033050Y0069163D01*
X0033050Y0069359D02*
X0036004Y0069359D01*
X0036004Y0070543D02*
X0036004Y0071331D01*
X0036004Y0070543D02*
X0033050Y0070543D01*
X0033050Y0071331D01*
X0036004Y0071331D01*
X0036004Y0070739D02*
X0033050Y0070739D01*
X0033050Y0070935D02*
X0036004Y0070935D01*
X0036004Y0071131D02*
X0033050Y0071131D01*
X0033050Y0071327D02*
X0036004Y0071327D01*
X0047815Y0071331D02*
X0047815Y0070543D01*
X0044861Y0070543D01*
X0044861Y0071331D01*
X0047815Y0071331D01*
X0047815Y0070739D02*
X0044861Y0070739D01*
X0044861Y0070935D02*
X0047815Y0070935D01*
X0047815Y0071131D02*
X0044861Y0071131D01*
X0044861Y0071327D02*
X0047815Y0071327D01*
X0047815Y0069363D02*
X0047815Y0068575D01*
X0044861Y0068575D01*
X0044861Y0069363D01*
X0047815Y0069363D01*
X0047815Y0068771D02*
X0044861Y0068771D01*
X0044861Y0068967D02*
X0047815Y0068967D01*
X0047815Y0069163D02*
X0044861Y0069163D01*
X0044861Y0069359D02*
X0047815Y0069359D01*
X0047815Y0067394D02*
X0047815Y0066606D01*
X0044861Y0066606D01*
X0044861Y0067394D01*
X0047815Y0067394D01*
X0047815Y0066802D02*
X0044861Y0066802D01*
X0044861Y0066998D02*
X0047815Y0066998D01*
X0047815Y0067194D02*
X0044861Y0067194D01*
X0044861Y0067390D02*
X0047815Y0067390D01*
X0047815Y0065425D02*
X0047815Y0064637D01*
X0044861Y0064637D01*
X0044861Y0065425D01*
X0047815Y0065425D01*
X0047815Y0064833D02*
X0044861Y0064833D01*
X0044861Y0065029D02*
X0047815Y0065029D01*
X0047815Y0065225D02*
X0044861Y0065225D01*
X0044861Y0065421D02*
X0047815Y0065421D01*
X0047815Y0063457D02*
X0047815Y0062669D01*
X0044861Y0062669D01*
X0044861Y0063457D01*
X0047815Y0063457D01*
X0047815Y0062865D02*
X0044861Y0062865D01*
X0044861Y0063061D02*
X0047815Y0063061D01*
X0047815Y0063257D02*
X0044861Y0063257D01*
X0044861Y0063453D02*
X0047815Y0063453D01*
D11*
X0042920Y0062996D02*
X0042920Y0071004D01*
X0042920Y0062996D02*
X0037944Y0062996D01*
X0037944Y0071004D01*
X0042920Y0071004D01*
X0042920Y0064239D02*
X0037944Y0064239D01*
X0037944Y0065482D02*
X0042920Y0065482D01*
X0042920Y0066725D02*
X0037944Y0066725D01*
X0037944Y0067968D02*
X0042920Y0067968D01*
X0042920Y0069211D02*
X0037944Y0069211D01*
X0037944Y0070454D02*
X0042920Y0070454D01*
D12*
X0056682Y0071125D03*
X0056682Y0063125D03*
X0056682Y0057375D03*
X0056682Y0049375D03*
D13*
X0058881Y0082043D03*
X0062031Y0082043D03*
X0039984Y0082043D03*
X0036834Y0082043D03*
D14*
X0042543Y0082043D03*
X0044511Y0082043D03*
X0046480Y0082043D03*
X0048448Y0082043D03*
X0050417Y0082043D03*
X0052385Y0082043D03*
X0054354Y0082043D03*
X0056322Y0082043D03*
D15*
X0066440Y0082126D02*
X0066440Y0086488D01*
X0066440Y0098583D02*
X0066440Y0102945D01*
X0032425Y0102945D02*
X0032425Y0098583D01*
X0032425Y0086488D02*
X0032425Y0082126D01*
D16*
X0046875Y0056589D03*
X0046875Y0054030D03*
X0046875Y0051470D03*
X0046875Y0048911D03*
D17*
X0037230Y0052750D03*
D18*
X0040592Y0036500D03*
X0040592Y0026500D03*
X0049432Y0021500D03*
X0049432Y0031500D03*
X0049432Y0041500D03*
X0058272Y0036500D03*
X0058272Y0026500D03*
X0054432Y0006500D03*
X0044432Y0006500D03*
D19*
X0041557Y0016500D03*
X0033557Y0016500D03*
D20*
X0057174Y0016500D03*
X0065441Y0016500D03*
D21*
X0064941Y0016951D02*
X0060836Y0016951D01*
X0061579Y0017000D02*
X0061579Y0019060D01*
X0061681Y0019441D01*
X0061879Y0019783D01*
X0062158Y0020062D01*
X0062500Y0020260D01*
X0062882Y0020362D01*
X0064941Y0020362D01*
X0064941Y0017000D01*
X0064941Y0016000D01*
X0061579Y0016000D01*
X0061579Y0013940D01*
X0061681Y0013559D01*
X0061879Y0013217D01*
X0062158Y0012937D01*
X0062500Y0012740D01*
X0062882Y0012638D01*
X0064941Y0012638D01*
X0064941Y0016000D01*
X0065941Y0016000D01*
X0065941Y0012638D01*
X0067932Y0012638D01*
X0067932Y0003000D01*
X0057721Y0003000D01*
X0058094Y0003373D01*
X0058538Y0003984D01*
X0058881Y0004657D01*
X0059114Y0005376D01*
X0059216Y0006016D01*
X0054917Y0006016D01*
X0054917Y0006984D01*
X0059216Y0006984D01*
X0059114Y0007624D01*
X0058881Y0008343D01*
X0058538Y0009016D01*
X0058094Y0009627D01*
X0057559Y0010161D01*
X0056948Y0010605D01*
X0056275Y0010948D01*
X0055556Y0011182D01*
X0054917Y0011283D01*
X0054917Y0006984D01*
X0053948Y0006984D01*
X0053948Y0006016D01*
X0049649Y0006016D01*
X0049751Y0005376D01*
X0049984Y0004657D01*
X0050327Y0003984D01*
X0050771Y0003373D01*
X0051144Y0003000D01*
X0047438Y0003000D01*
X0048332Y0003894D01*
X0049032Y0005585D01*
X0049032Y0007415D01*
X0048332Y0009106D01*
X0047038Y0010400D01*
X0045347Y0011100D01*
X0043517Y0011100D01*
X0041827Y0010400D01*
X0040827Y0009400D01*
X0040009Y0009400D01*
X0036707Y0012701D01*
X0036707Y0012890D01*
X0037220Y0013402D01*
X0037220Y0019598D01*
X0036458Y0020359D01*
X0036457Y0020359D01*
X0036457Y0024462D01*
X0036693Y0023894D01*
X0037987Y0022600D01*
X0039677Y0021900D01*
X0041507Y0021900D01*
X0043198Y0022600D01*
X0044492Y0023894D01*
X0045192Y0025585D01*
X0045192Y0027415D01*
X0044492Y0029106D01*
X0043198Y0030400D01*
X0041507Y0031100D01*
X0039677Y0031100D01*
X0037987Y0030400D01*
X0036693Y0029106D01*
X0036457Y0028538D01*
X0036457Y0034462D01*
X0036693Y0033894D01*
X0037987Y0032600D01*
X0039677Y0031900D01*
X0041507Y0031900D01*
X0043198Y0032600D01*
X0044492Y0033894D01*
X0045192Y0035585D01*
X0045192Y0037415D01*
X0044492Y0039106D01*
X0043198Y0040400D01*
X0041507Y0041100D01*
X0039677Y0041100D01*
X0037987Y0040400D01*
X0036693Y0039106D01*
X0036457Y0038538D01*
X0036457Y0044424D01*
X0038575Y0046541D01*
X0038575Y0046541D01*
X0038858Y0046824D01*
X0042197Y0046824D01*
X0042959Y0047586D01*
X0042959Y0057914D01*
X0042197Y0058676D01*
X0036267Y0058676D01*
X0036585Y0059443D01*
X0036853Y0059175D01*
X0046141Y0059175D01*
X0046331Y0058715D01*
X0044959Y0058715D01*
X0044197Y0057954D01*
X0044197Y0052583D01*
X0043975Y0052047D01*
X0043975Y0050894D01*
X0044197Y0050358D01*
X0044197Y0047546D01*
X0044959Y0046785D01*
X0048792Y0046785D01*
X0049553Y0047546D01*
X0049553Y0048469D01*
X0050541Y0047481D01*
X0050906Y0047093D01*
X0050948Y0047074D01*
X0050981Y0047041D01*
X0051472Y0046838D01*
X0051958Y0046619D01*
X0052004Y0046618D01*
X0052047Y0046600D01*
X0052579Y0046600D01*
X0052823Y0046592D01*
X0052823Y0046474D01*
X0053585Y0045713D01*
X0059780Y0045713D01*
X0060541Y0046474D01*
X0060541Y0046733D01*
X0061036Y0046759D01*
X0061058Y0046770D01*
X0061082Y0046772D01*
X0061578Y0047018D01*
X0062077Y0047256D01*
X0062093Y0047274D01*
X0062115Y0047285D01*
X0062479Y0047703D01*
X0064662Y0050128D01*
X0065016Y0050482D01*
X0065046Y0050555D01*
X0065099Y0050614D01*
X0065266Y0051086D01*
X0065457Y0051548D01*
X0065457Y0051627D01*
X0065484Y0051701D01*
X0065457Y0052201D01*
X0065457Y0068952D01*
X0065016Y0070018D01*
X0064391Y0070643D01*
X0062957Y0072076D01*
X0062957Y0073160D01*
X0063011Y0073519D01*
X0062957Y0073732D01*
X0062957Y0073952D01*
X0062819Y0074287D01*
X0061821Y0078280D01*
X0061965Y0078280D01*
X0061965Y0081977D01*
X0062097Y0081977D01*
X0062097Y0078280D01*
X0063360Y0078280D01*
X0063742Y0078382D01*
X0064084Y0078579D01*
X0064363Y0078859D01*
X0065232Y0078859D01*
X0065748Y0078645D02*
X0067133Y0078645D01*
X0067932Y0078976D01*
X0067932Y0020362D01*
X0065941Y0020362D01*
X0065941Y0017000D01*
X0064941Y0017000D01*
X0061579Y0017000D01*
X0061579Y0017949D02*
X0060836Y0017949D01*
X0060836Y0018948D02*
X0061579Y0018948D01*
X0060836Y0019401D02*
X0060074Y0020162D01*
X0054273Y0020162D01*
X0053563Y0019453D01*
X0054032Y0020585D01*
X0054032Y0022415D01*
X0053332Y0024106D01*
X0052038Y0025400D01*
X0050347Y0026100D01*
X0048517Y0026100D01*
X0046827Y0025400D01*
X0045533Y0024106D01*
X0044832Y0022415D01*
X0044832Y0020585D01*
X0045533Y0018894D01*
X0046227Y0018200D01*
X0045220Y0018200D01*
X0045220Y0019598D01*
X0044458Y0020359D01*
X0038657Y0020359D01*
X0037895Y0019598D01*
X0037895Y0013402D01*
X0038657Y0012641D01*
X0044458Y0012641D01*
X0045220Y0013402D01*
X0045220Y0014800D01*
X0053511Y0014800D01*
X0053511Y0013599D01*
X0054273Y0012838D01*
X0060074Y0012838D01*
X0060836Y0013599D01*
X0060836Y0019401D01*
X0060290Y0019946D02*
X0062042Y0019946D01*
X0060878Y0022600D02*
X0062172Y0023894D01*
X0062872Y0025585D01*
X0062872Y0027415D01*
X0062172Y0029106D01*
X0060878Y0030400D01*
X0059187Y0031100D01*
X0057357Y0031100D01*
X0055667Y0030400D01*
X0054373Y0029106D01*
X0053672Y0027415D01*
X0053672Y0025585D01*
X0054373Y0023894D01*
X0055667Y0022600D01*
X0057357Y0021900D01*
X0059187Y0021900D01*
X0060878Y0022600D01*
X0061220Y0022942D02*
X0067932Y0022942D01*
X0067932Y0023940D02*
X0062191Y0023940D01*
X0062605Y0024939D02*
X0067932Y0024939D01*
X0067932Y0025937D02*
X0062872Y0025937D01*
X0062872Y0026936D02*
X0067932Y0026936D01*
X0067932Y0027934D02*
X0062657Y0027934D01*
X0062244Y0028933D02*
X0067932Y0028933D01*
X0067932Y0029932D02*
X0061346Y0029932D01*
X0059598Y0030930D02*
X0067932Y0030930D01*
X0067932Y0031929D02*
X0059736Y0031929D01*
X0059396Y0031818D02*
X0060115Y0032052D01*
X0060788Y0032395D01*
X0061399Y0032839D01*
X0061934Y0033373D01*
X0062378Y0033984D01*
X0062721Y0034657D01*
X0062954Y0035376D01*
X0063056Y0036016D01*
X0058757Y0036016D01*
X0058757Y0036984D01*
X0063056Y0036984D01*
X0062954Y0037624D01*
X0062721Y0038343D01*
X0062378Y0039016D01*
X0061934Y0039627D01*
X0061399Y0040161D01*
X0060788Y0040605D01*
X0060115Y0040948D01*
X0059396Y0041182D01*
X0058757Y0041283D01*
X0058757Y0036984D01*
X0057788Y0036984D01*
X0057788Y0036016D01*
X0053489Y0036016D01*
X0053591Y0035376D01*
X0053824Y0034657D01*
X0054167Y0033984D01*
X0054611Y0033373D01*
X0055145Y0032839D01*
X0055757Y0032395D01*
X0056430Y0032052D01*
X0057148Y0031818D01*
X0057788Y0031717D01*
X0057788Y0036016D01*
X0058757Y0036016D01*
X0058757Y0031717D01*
X0059396Y0031818D01*
X0058757Y0031929D02*
X0057788Y0031929D01*
X0056809Y0031929D02*
X0054032Y0031929D01*
X0054032Y0032415D02*
X0053332Y0034106D01*
X0052038Y0035400D01*
X0050347Y0036100D01*
X0048517Y0036100D01*
X0046827Y0035400D01*
X0045533Y0034106D01*
X0044832Y0032415D01*
X0044832Y0030585D01*
X0045533Y0028894D01*
X0046827Y0027600D01*
X0048517Y0026900D01*
X0050347Y0026900D01*
X0052038Y0027600D01*
X0053332Y0028894D01*
X0054032Y0030585D01*
X0054032Y0032415D01*
X0053820Y0032927D02*
X0055057Y0032927D01*
X0054210Y0033926D02*
X0053407Y0033926D01*
X0053737Y0034924D02*
X0052514Y0034924D01*
X0053504Y0035923D02*
X0050776Y0035923D01*
X0050347Y0036900D02*
X0052038Y0037600D01*
X0053332Y0038894D01*
X0054032Y0040585D01*
X0054032Y0042415D01*
X0053332Y0044106D01*
X0052038Y0045400D01*
X0050347Y0046100D01*
X0048517Y0046100D01*
X0046827Y0045400D01*
X0045533Y0044106D01*
X0044832Y0042415D01*
X0044832Y0040585D01*
X0045533Y0038894D01*
X0046827Y0037600D01*
X0048517Y0036900D01*
X0050347Y0036900D01*
X0050398Y0036921D02*
X0057788Y0036921D01*
X0057788Y0036984D02*
X0053489Y0036984D01*
X0053591Y0037624D01*
X0053824Y0038343D01*
X0054167Y0039016D01*
X0054611Y0039627D01*
X0055145Y0040161D01*
X0055757Y0040605D01*
X0056430Y0040948D01*
X0057148Y0041182D01*
X0057788Y0041283D01*
X0057788Y0036984D01*
X0057788Y0037920D02*
X0058757Y0037920D01*
X0058757Y0038918D02*
X0057788Y0038918D01*
X0057788Y0039917D02*
X0058757Y0039917D01*
X0058757Y0040915D02*
X0057788Y0040915D01*
X0056365Y0040915D02*
X0054032Y0040915D01*
X0054032Y0041914D02*
X0067932Y0041914D01*
X0067932Y0042912D02*
X0053827Y0042912D01*
X0053413Y0043911D02*
X0067932Y0043911D01*
X0067932Y0044909D02*
X0052529Y0044909D01*
X0053390Y0045908D02*
X0050812Y0045908D01*
X0051307Y0046906D02*
X0048913Y0046906D01*
X0049553Y0047905D02*
X0050117Y0047905D01*
X0048053Y0045908D02*
X0037941Y0045908D01*
X0036943Y0044909D02*
X0046336Y0044909D01*
X0045452Y0043911D02*
X0036457Y0043911D01*
X0036457Y0042912D02*
X0045038Y0042912D01*
X0044832Y0041914D02*
X0036457Y0041914D01*
X0036457Y0040915D02*
X0039231Y0040915D01*
X0037504Y0039917D02*
X0036457Y0039917D01*
X0036457Y0038918D02*
X0036615Y0038918D01*
X0036680Y0033926D02*
X0036457Y0033926D01*
X0036457Y0032927D02*
X0037660Y0032927D01*
X0036457Y0031929D02*
X0039609Y0031929D01*
X0039267Y0030930D02*
X0036457Y0030930D01*
X0036457Y0029932D02*
X0037519Y0029932D01*
X0036621Y0028933D02*
X0036457Y0028933D01*
X0036457Y0023940D02*
X0036674Y0023940D01*
X0036457Y0022942D02*
X0037645Y0022942D01*
X0036457Y0021943D02*
X0039573Y0021943D01*
X0041612Y0021943D02*
X0044832Y0021943D01*
X0044832Y0020945D02*
X0036457Y0020945D01*
X0036871Y0019946D02*
X0038244Y0019946D01*
X0037895Y0018948D02*
X0037220Y0018948D01*
X0037220Y0017949D02*
X0037895Y0017949D01*
X0037895Y0016951D02*
X0037220Y0016951D01*
X0037220Y0015952D02*
X0037895Y0015952D01*
X0037895Y0014954D02*
X0037220Y0014954D01*
X0037220Y0013955D02*
X0037895Y0013955D01*
X0038341Y0012957D02*
X0036774Y0012957D01*
X0037450Y0011958D02*
X0067932Y0011958D01*
X0067932Y0010960D02*
X0056240Y0010960D01*
X0057759Y0009961D02*
X0067932Y0009961D01*
X0067932Y0008963D02*
X0058565Y0008963D01*
X0059004Y0007964D02*
X0067932Y0007964D01*
X0067932Y0006966D02*
X0054917Y0006966D01*
X0053948Y0006966D02*
X0049032Y0006966D01*
X0049649Y0006984D02*
X0049751Y0007624D01*
X0049984Y0008343D01*
X0050327Y0009016D01*
X0050771Y0009627D01*
X0051305Y0010161D01*
X0051917Y0010605D01*
X0052590Y0010948D01*
X0053308Y0011182D01*
X0053948Y0011283D01*
X0053948Y0006984D01*
X0049649Y0006984D01*
X0049861Y0007964D02*
X0048805Y0007964D01*
X0048391Y0008963D02*
X0050300Y0008963D01*
X0051106Y0009961D02*
X0047477Y0009961D01*
X0045686Y0010960D02*
X0052625Y0010960D01*
X0053948Y0010960D02*
X0054917Y0010960D01*
X0054917Y0009961D02*
X0053948Y0009961D01*
X0053948Y0008963D02*
X0054917Y0008963D01*
X0054917Y0007964D02*
X0053948Y0007964D01*
X0054154Y0012957D02*
X0044774Y0012957D01*
X0045220Y0013955D02*
X0053511Y0013955D01*
X0053768Y0019946D02*
X0054057Y0019946D01*
X0054032Y0020945D02*
X0067932Y0020945D01*
X0067932Y0021943D02*
X0059292Y0021943D01*
X0057253Y0021943D02*
X0054032Y0021943D01*
X0053814Y0022942D02*
X0055325Y0022942D01*
X0054354Y0023940D02*
X0053401Y0023940D01*
X0053940Y0024939D02*
X0052499Y0024939D01*
X0053672Y0025937D02*
X0050740Y0025937D01*
X0050434Y0026936D02*
X0053672Y0026936D01*
X0053888Y0027934D02*
X0052372Y0027934D01*
X0053348Y0028933D02*
X0054301Y0028933D01*
X0053762Y0029932D02*
X0055199Y0029932D01*
X0054032Y0030930D02*
X0056947Y0030930D01*
X0057788Y0032927D02*
X0058757Y0032927D01*
X0058757Y0033926D02*
X0057788Y0033926D01*
X0057788Y0034924D02*
X0058757Y0034924D01*
X0058757Y0035923D02*
X0057788Y0035923D01*
X0058757Y0036921D02*
X0067932Y0036921D01*
X0067932Y0035923D02*
X0063041Y0035923D01*
X0062807Y0034924D02*
X0067932Y0034924D01*
X0067932Y0033926D02*
X0062335Y0033926D01*
X0061488Y0032927D02*
X0067932Y0032927D01*
X0067932Y0037920D02*
X0062858Y0037920D01*
X0062427Y0038918D02*
X0067932Y0038918D01*
X0067932Y0039917D02*
X0061644Y0039917D01*
X0060180Y0040915D02*
X0067932Y0040915D01*
X0067932Y0045908D02*
X0059975Y0045908D01*
X0061353Y0046906D02*
X0067932Y0046906D01*
X0067932Y0047905D02*
X0062661Y0047905D01*
X0063559Y0048903D02*
X0067932Y0048903D01*
X0067932Y0049902D02*
X0064458Y0049902D01*
X0065200Y0050900D02*
X0067932Y0050900D01*
X0067932Y0051899D02*
X0065473Y0051899D01*
X0065457Y0052897D02*
X0067932Y0052897D01*
X0067932Y0053896D02*
X0065457Y0053896D01*
X0065457Y0054894D02*
X0067932Y0054894D01*
X0067932Y0055893D02*
X0065457Y0055893D01*
X0065457Y0056891D02*
X0067932Y0056891D01*
X0067932Y0057890D02*
X0065457Y0057890D01*
X0065457Y0058888D02*
X0067932Y0058888D01*
X0067932Y0059887D02*
X0065457Y0059887D01*
X0065457Y0060885D02*
X0067932Y0060885D01*
X0067932Y0061884D02*
X0065457Y0061884D01*
X0065457Y0062882D02*
X0067932Y0062882D01*
X0067932Y0063881D02*
X0065457Y0063881D01*
X0065457Y0064879D02*
X0067932Y0064879D01*
X0067932Y0065878D02*
X0065457Y0065878D01*
X0065457Y0066876D02*
X0067932Y0066876D01*
X0067932Y0067875D02*
X0065457Y0067875D01*
X0065457Y0068873D02*
X0067932Y0068873D01*
X0067932Y0069872D02*
X0065076Y0069872D01*
X0064163Y0070870D02*
X0067932Y0070870D01*
X0067932Y0071869D02*
X0063165Y0071869D01*
X0062957Y0072868D02*
X0067932Y0072868D01*
X0067932Y0073866D02*
X0062957Y0073866D01*
X0062674Y0074865D02*
X0067932Y0074865D01*
X0067932Y0075863D02*
X0062425Y0075863D01*
X0062175Y0076862D02*
X0067932Y0076862D01*
X0067932Y0077860D02*
X0061925Y0077860D01*
X0061965Y0078859D02*
X0062097Y0078859D01*
X0062097Y0079857D02*
X0061965Y0079857D01*
X0061965Y0080856D02*
X0062097Y0080856D01*
X0062097Y0081854D02*
X0061965Y0081854D01*
X0059414Y0082971D02*
X0058789Y0084011D01*
X0058881Y0082043D01*
X0059414Y0082971D02*
X0058981Y0083403D01*
X0058057Y0086000D01*
X0060157Y0089014D02*
X0060157Y0092196D01*
X0056754Y0095600D01*
X0042063Y0095600D01*
X0038957Y0092495D01*
X0038957Y0090755D01*
X0038957Y0088910D01*
X0038607Y0089055D01*
X0037502Y0089055D01*
X0036480Y0088632D01*
X0035698Y0087850D01*
X0035663Y0087766D01*
X0035376Y0088460D01*
X0034396Y0089439D01*
X0033117Y0089969D01*
X0031732Y0089969D01*
X0030932Y0089638D01*
X0030932Y0095433D01*
X0031732Y0095102D01*
X0033117Y0095102D01*
X0034396Y0095632D01*
X0035376Y0096611D01*
X0035906Y0097890D01*
X0035906Y0103637D01*
X0035376Y0104917D01*
X0035292Y0105000D01*
X0063572Y0105000D01*
X0063489Y0104917D01*
X0062959Y0103637D01*
X0062959Y0097890D01*
X0063489Y0096611D01*
X0064468Y0095632D01*
X0065748Y0095102D01*
X0067133Y0095102D01*
X0067932Y0095433D01*
X0067932Y0089638D01*
X0067133Y0089969D01*
X0065748Y0089969D01*
X0064468Y0089439D01*
X0063489Y0088460D01*
X0063202Y0087766D01*
X0063167Y0087850D01*
X0062385Y0088632D01*
X0061363Y0089055D01*
X0060258Y0089055D01*
X0060157Y0089014D01*
X0060157Y0089842D02*
X0065441Y0089842D01*
X0063873Y0088844D02*
X0061874Y0088844D01*
X0063169Y0087845D02*
X0063234Y0087845D01*
X0060157Y0090841D02*
X0067932Y0090841D01*
X0067932Y0091839D02*
X0060157Y0091839D01*
X0059516Y0092838D02*
X0067932Y0092838D01*
X0067932Y0093836D02*
X0058518Y0093836D01*
X0057519Y0094835D02*
X0067932Y0094835D01*
X0064267Y0095833D02*
X0034598Y0095833D01*
X0035467Y0096832D02*
X0063398Y0096832D01*
X0062984Y0097830D02*
X0035881Y0097830D01*
X0035906Y0098829D02*
X0062959Y0098829D01*
X0062959Y0099827D02*
X0035906Y0099827D01*
X0035906Y0100826D02*
X0062959Y0100826D01*
X0062959Y0101824D02*
X0035906Y0101824D01*
X0035906Y0102823D02*
X0062959Y0102823D01*
X0063035Y0103821D02*
X0035829Y0103821D01*
X0035416Y0104820D02*
X0063449Y0104820D01*
X0067440Y0089842D02*
X0067932Y0089842D01*
X0067932Y0078859D02*
X0067649Y0078859D01*
X0065748Y0078645D02*
X0064531Y0079149D01*
X0064363Y0078859D01*
X0046260Y0058888D02*
X0036355Y0058888D01*
X0039932Y0062575D02*
X0039932Y0066500D01*
X0037402Y0066500D01*
X0037402Y0067500D01*
X0039932Y0067500D01*
X0039932Y0066500D01*
X0040932Y0066500D01*
X0040932Y0062575D01*
X0039932Y0062575D01*
X0039932Y0062882D02*
X0040932Y0062882D01*
X0040932Y0063881D02*
X0039932Y0063881D01*
X0039932Y0064879D02*
X0040932Y0064879D01*
X0040932Y0065878D02*
X0039932Y0065878D01*
X0039932Y0066876D02*
X0037402Y0066876D01*
X0039932Y0067500D02*
X0039932Y0073126D01*
X0037665Y0073126D01*
X0037125Y0072981D01*
X0036641Y0072702D01*
X0036625Y0072686D01*
X0036583Y0072729D01*
X0035143Y0072729D01*
X0035432Y0073428D01*
X0035432Y0074572D01*
X0034995Y0075629D01*
X0034186Y0076437D01*
X0033129Y0076875D01*
X0031986Y0076875D01*
X0030932Y0076439D01*
X0030932Y0078976D01*
X0031732Y0078645D01*
X0033117Y0078645D01*
X0034334Y0079149D01*
X0034502Y0078859D01*
X0033633Y0078859D01*
X0034502Y0078859D02*
X0034781Y0078579D01*
X0035123Y0078382D01*
X0035505Y0078280D01*
X0036768Y0078280D01*
X0036768Y0081977D01*
X0036900Y0081977D01*
X0036900Y0078280D01*
X0038163Y0078280D01*
X0038545Y0078382D01*
X0038714Y0078480D01*
X0040952Y0078480D01*
X0041255Y0078177D01*
X0042718Y0076227D01*
X0042718Y0073126D01*
X0040932Y0073126D01*
X0040932Y0067500D01*
X0039932Y0067500D01*
X0039932Y0067875D02*
X0040932Y0067875D01*
X0040932Y0067500D02*
X0043463Y0067500D01*
X0043463Y0066500D01*
X0040932Y0066500D01*
X0040932Y0067500D01*
X0040932Y0066876D02*
X0043463Y0066876D01*
X0040932Y0068873D02*
X0039932Y0068873D01*
X0039932Y0069872D02*
X0040932Y0069872D01*
X0040932Y0070870D02*
X0039932Y0070870D01*
X0039932Y0071869D02*
X0040932Y0071869D01*
X0040932Y0072868D02*
X0039932Y0072868D01*
X0042718Y0073866D02*
X0035432Y0073866D01*
X0035311Y0074865D02*
X0042718Y0074865D01*
X0042718Y0075863D02*
X0034760Y0075863D01*
X0033162Y0076862D02*
X0042241Y0076862D01*
X0041493Y0077860D02*
X0030932Y0077860D01*
X0030932Y0076862D02*
X0031953Y0076862D01*
X0031216Y0078859D02*
X0030932Y0078859D01*
X0035200Y0072868D02*
X0036928Y0072868D01*
X0036900Y0078859D02*
X0036768Y0078859D01*
X0036768Y0079857D02*
X0036900Y0079857D01*
X0036900Y0080856D02*
X0036768Y0080856D01*
X0036768Y0081854D02*
X0036900Y0081854D01*
X0039984Y0082043D02*
X0040367Y0081660D01*
X0040432Y0080992D01*
X0039807Y0083473D01*
X0041057Y0085749D01*
X0038957Y0089842D02*
X0033424Y0089842D01*
X0034992Y0088844D02*
X0036991Y0088844D01*
X0035696Y0087845D02*
X0035630Y0087845D01*
X0038957Y0090841D02*
X0030932Y0090841D01*
X0030932Y0091839D02*
X0038957Y0091839D01*
X0039300Y0092838D02*
X0030932Y0092838D01*
X0030932Y0093836D02*
X0040299Y0093836D01*
X0041297Y0094835D02*
X0030932Y0094835D01*
X0030932Y0089842D02*
X0031425Y0089842D01*
X0042959Y0057890D02*
X0044197Y0057890D01*
X0044197Y0056891D02*
X0042959Y0056891D01*
X0042959Y0055893D02*
X0044197Y0055893D01*
X0044197Y0054894D02*
X0042959Y0054894D01*
X0042959Y0053896D02*
X0044197Y0053896D01*
X0044197Y0052897D02*
X0042959Y0052897D01*
X0042959Y0051899D02*
X0043975Y0051899D01*
X0043975Y0050900D02*
X0042959Y0050900D01*
X0042959Y0049902D02*
X0044197Y0049902D01*
X0044197Y0048903D02*
X0042959Y0048903D01*
X0042959Y0047905D02*
X0044197Y0047905D01*
X0044837Y0046906D02*
X0042279Y0046906D01*
X0041954Y0040915D02*
X0044832Y0040915D01*
X0045109Y0039917D02*
X0043681Y0039917D01*
X0044570Y0038918D02*
X0045523Y0038918D01*
X0044983Y0037920D02*
X0046507Y0037920D01*
X0045192Y0036921D02*
X0048466Y0036921D01*
X0048089Y0035923D02*
X0045192Y0035923D01*
X0044919Y0034924D02*
X0046351Y0034924D01*
X0045458Y0033926D02*
X0044505Y0033926D01*
X0045045Y0032927D02*
X0043525Y0032927D01*
X0044832Y0031929D02*
X0041576Y0031929D01*
X0041918Y0030930D02*
X0044832Y0030930D01*
X0045103Y0029932D02*
X0043666Y0029932D01*
X0044564Y0028933D02*
X0045517Y0028933D01*
X0044977Y0027934D02*
X0046493Y0027934D01*
X0045192Y0026936D02*
X0048431Y0026936D01*
X0048125Y0025937D02*
X0045192Y0025937D01*
X0044925Y0024939D02*
X0046366Y0024939D01*
X0045464Y0023940D02*
X0044511Y0023940D01*
X0045051Y0022942D02*
X0043540Y0022942D01*
X0044871Y0019946D02*
X0045097Y0019946D01*
X0045220Y0018948D02*
X0045511Y0018948D01*
X0043179Y0010960D02*
X0038449Y0010960D01*
X0039447Y0009961D02*
X0041388Y0009961D01*
X0049032Y0005967D02*
X0049657Y0005967D01*
X0049883Y0004969D02*
X0048777Y0004969D01*
X0048364Y0003970D02*
X0050337Y0003970D01*
X0058528Y0003970D02*
X0067932Y0003970D01*
X0067932Y0004969D02*
X0058982Y0004969D01*
X0059208Y0005967D02*
X0067932Y0005967D01*
X0065941Y0012957D02*
X0064941Y0012957D01*
X0064941Y0013955D02*
X0065941Y0013955D01*
X0065941Y0014954D02*
X0064941Y0014954D01*
X0064941Y0015952D02*
X0065941Y0015952D01*
X0065941Y0017949D02*
X0064941Y0017949D01*
X0064941Y0018948D02*
X0065941Y0018948D01*
X0065941Y0019946D02*
X0064941Y0019946D01*
X0061579Y0015952D02*
X0060836Y0015952D01*
X0060836Y0014954D02*
X0061579Y0014954D01*
X0061579Y0013955D02*
X0060836Y0013955D01*
X0060193Y0012957D02*
X0062139Y0012957D01*
X0053687Y0037920D02*
X0052357Y0037920D01*
X0053342Y0038918D02*
X0054117Y0038918D01*
X0053756Y0039917D02*
X0054901Y0039917D01*
D22*
X0046875Y0048911D02*
X0046875Y0051470D01*
X0046875Y0054030D01*
X0064031Y0075848D02*
X0062156Y0080043D01*
X0062031Y0082043D01*
X0058881Y0082043D02*
X0058881Y0078449D01*
X0058807Y0078375D01*
X0058057Y0086000D02*
X0058057Y0091327D01*
X0055884Y0093500D01*
X0042932Y0093500D01*
X0041057Y0091625D01*
X0041057Y0085749D01*
D23*
X0033807Y0016250D02*
X0033807Y0011500D01*
X0038807Y0006500D01*
X0044432Y0006500D01*
X0033807Y0016250D02*
X0033557Y0016500D01*
X0033557Y0045625D01*
X0036932Y0049000D01*
X0036932Y0052453D01*
X0037230Y0052750D01*
X0046875Y0051470D02*
X0050653Y0051470D01*
X0052623Y0049500D01*
X0056682Y0049375D01*
X0060307Y0049625D01*
X0062557Y0052125D01*
X0062557Y0068375D01*
X0061932Y0069000D01*
X0060057Y0070875D01*
X0060057Y0073375D01*
X0058807Y0078375D01*
X0059807Y0071125D02*
X0056682Y0071125D01*
X0059807Y0071125D02*
X0060057Y0070875D01*
D24*
X0064031Y0075848D03*
X0059432Y0099000D03*
X0049307Y0098875D03*
X0039432Y0099000D03*
X0040807Y0076000D03*
X0036432Y0076000D03*
X0040557Y0067000D03*
X0040057Y0011250D03*
X0065682Y0009250D03*
D25*
X0057174Y0016500D02*
X0041557Y0016500D01*
X0046875Y0056500D02*
X0050682Y0056500D01*
X0051557Y0057375D01*
X0056682Y0057375D01*
X0056245Y0063063D02*
X0052557Y0063063D01*
X0046338Y0063063D01*
X0046338Y0065031D02*
X0050247Y0065031D01*
X0052551Y0067336D01*
X0052551Y0076744D01*
X0050417Y0078984D01*
X0050417Y0082043D01*
X0050417Y0089516D01*
X0048432Y0091500D01*
X0044432Y0091500D01*
X0043432Y0090500D01*
X0043432Y0088000D01*
X0046480Y0084953D01*
X0046480Y0082043D01*
X0048448Y0082043D02*
X0048448Y0087194D01*
X0047642Y0087750D01*
X0048448Y0082043D02*
X0048448Y0078891D01*
X0050932Y0076375D01*
X0050932Y0067980D01*
X0049953Y0067000D01*
X0046338Y0067000D01*
X0046338Y0068969D02*
X0049163Y0068969D01*
X0049163Y0074155D01*
X0047288Y0075875D01*
X0044418Y0076793D02*
X0044418Y0072232D01*
X0046338Y0070937D01*
X0044418Y0076793D02*
X0042543Y0079293D01*
X0042543Y0082043D01*
X0052385Y0082043D02*
X0052385Y0087043D01*
X0053192Y0087750D01*
X0054354Y0082043D02*
X0054354Y0078848D01*
X0055432Y0075875D01*
X0056682Y0063125D02*
X0056245Y0063063D01*
X0048807Y0060250D02*
X0047557Y0060875D01*
X0037557Y0060875D01*
X0035369Y0063063D01*
X0034527Y0063063D01*
X0034527Y0065031D02*
X0032339Y0065031D01*
X0031307Y0064000D01*
X0031307Y0060875D01*
X0031932Y0060250D01*
X0033807Y0060250D01*
X0034527Y0067000D02*
X0032057Y0067000D01*
X0031307Y0067750D01*
X0031307Y0073375D01*
X0032557Y0074000D01*
X0046875Y0056589D02*
X0046875Y0056500D01*
D26*
X0050682Y0056500D03*
X0048807Y0060250D03*
X0052557Y0063063D03*
X0055432Y0075875D03*
X0047288Y0075875D03*
X0047642Y0087750D03*
X0053192Y0087750D03*
X0033807Y0060250D03*
X0032557Y0074000D03*
M02*
