G75*
%MOIN*%
%OFA0B0*%
%FSLAX25Y25*%
%IPPOS*%
%LPD*%
%AMOC8*
5,1,8,0,0,1.08239X$1,22.5*
%
%ADD10C,0.00600*%
%ADD11C,0.00800*%
%ADD12C,0.00300*%
%ADD13C,0.00400*%
%ADD14C,0.01200*%
%ADD15C,0.01600*%
%ADD16C,0.00500*%
%ADD17R,0.00750X0.03500*%
D10*
X0030893Y0020550D02*
X0032628Y0020550D01*
X0031760Y0020550D02*
X0031760Y0023152D01*
X0030893Y0022285D01*
X0033839Y0021851D02*
X0034707Y0022285D01*
X0035141Y0022285D01*
X0035574Y0021851D01*
X0035574Y0020984D01*
X0035141Y0020550D01*
X0034273Y0020550D01*
X0033839Y0020984D01*
X0033839Y0021851D02*
X0033839Y0023152D01*
X0035574Y0023152D01*
X0036786Y0023152D02*
X0036786Y0021417D01*
X0037653Y0020550D01*
X0038521Y0021417D01*
X0038521Y0023152D01*
X0045313Y0016035D02*
X0046180Y0016902D01*
X0046180Y0014300D01*
X0045313Y0014300D02*
X0047047Y0014300D01*
X0048259Y0014300D02*
X0049994Y0016035D01*
X0049994Y0016469D01*
X0049560Y0016902D01*
X0048693Y0016902D01*
X0048259Y0016469D01*
X0048259Y0014300D02*
X0049994Y0014300D01*
X0051206Y0015167D02*
X0052073Y0014300D01*
X0052941Y0015167D01*
X0052941Y0016902D01*
X0051206Y0016902D02*
X0051206Y0015167D01*
X0060307Y0015123D02*
X0060471Y0015123D01*
X0060307Y0015000D02*
X0062307Y0016500D01*
X0060307Y0018000D01*
X0060307Y0015000D01*
X0060307Y0015721D02*
X0061269Y0015721D01*
X0062067Y0016320D02*
X0060307Y0016320D01*
X0060307Y0016918D02*
X0061750Y0016918D01*
X0060952Y0017517D02*
X0060307Y0017517D01*
X0062041Y0020550D02*
X0062909Y0020550D01*
X0063342Y0020984D01*
X0063342Y0022719D01*
X0062909Y0023152D01*
X0062041Y0023152D01*
X0061607Y0022719D01*
X0061607Y0022285D01*
X0062041Y0021851D01*
X0063342Y0021851D01*
X0064554Y0021417D02*
X0065421Y0020550D01*
X0066289Y0021417D01*
X0066289Y0023152D01*
X0064554Y0023152D02*
X0064554Y0021417D01*
X0062041Y0020550D02*
X0061607Y0020984D01*
X0062041Y0039300D02*
X0061607Y0039734D01*
X0062041Y0039300D02*
X0062909Y0039300D01*
X0063342Y0039734D01*
X0063342Y0040601D01*
X0062909Y0041035D01*
X0062475Y0041035D01*
X0061607Y0040601D01*
X0061607Y0041902D01*
X0063342Y0041902D01*
X0064554Y0041902D02*
X0064554Y0040167D01*
X0065421Y0039300D01*
X0066289Y0040167D01*
X0066289Y0041902D01*
X0060441Y0044542D02*
X0060441Y0046277D01*
X0060441Y0044542D02*
X0059573Y0043675D01*
X0058706Y0044542D01*
X0058706Y0046277D01*
X0057494Y0045844D02*
X0055759Y0044109D01*
X0056193Y0043675D01*
X0057060Y0043675D01*
X0057494Y0044109D01*
X0057494Y0045844D01*
X0057060Y0046277D01*
X0056193Y0046277D01*
X0055759Y0045844D01*
X0055759Y0044109D01*
X0054547Y0043675D02*
X0052813Y0043675D01*
X0054547Y0045410D01*
X0054547Y0045844D01*
X0054114Y0046277D01*
X0053246Y0046277D01*
X0052813Y0045844D01*
X0045839Y0046250D02*
X0045841Y0046311D01*
X0045847Y0046372D01*
X0045857Y0046432D01*
X0045870Y0046492D01*
X0045888Y0046550D01*
X0045909Y0046607D01*
X0045934Y0046663D01*
X0045963Y0046717D01*
X0045995Y0046769D01*
X0046030Y0046819D01*
X0046068Y0046866D01*
X0046110Y0046911D01*
X0046154Y0046954D01*
X0046201Y0046993D01*
X0046250Y0047029D01*
X0046302Y0047062D01*
X0046355Y0047091D01*
X0046411Y0047117D01*
X0046467Y0047139D01*
X0046526Y0047157D01*
X0046585Y0047172D01*
X0046645Y0047183D01*
X0046706Y0047190D01*
X0046767Y0047193D01*
X0046828Y0047192D01*
X0046889Y0047187D01*
X0046949Y0047178D01*
X0047009Y0047165D01*
X0047068Y0047149D01*
X0047125Y0047128D01*
X0047181Y0047104D01*
X0047236Y0047077D01*
X0047288Y0047046D01*
X0047339Y0047011D01*
X0047387Y0046973D01*
X0047432Y0046933D01*
X0047475Y0046889D01*
X0047515Y0046843D01*
X0047552Y0046794D01*
X0047586Y0046743D01*
X0047616Y0046690D01*
X0047643Y0046635D01*
X0047666Y0046579D01*
X0047685Y0046521D01*
X0047701Y0046462D01*
X0047713Y0046402D01*
X0047721Y0046341D01*
X0047725Y0046281D01*
X0047725Y0046219D01*
X0047721Y0046159D01*
X0047713Y0046098D01*
X0047701Y0046038D01*
X0047685Y0045979D01*
X0047666Y0045921D01*
X0047643Y0045865D01*
X0047616Y0045810D01*
X0047586Y0045757D01*
X0047552Y0045706D01*
X0047515Y0045657D01*
X0047475Y0045611D01*
X0047432Y0045567D01*
X0047387Y0045527D01*
X0047339Y0045489D01*
X0047288Y0045454D01*
X0047236Y0045423D01*
X0047181Y0045396D01*
X0047125Y0045372D01*
X0047068Y0045351D01*
X0047009Y0045335D01*
X0046949Y0045322D01*
X0046889Y0045313D01*
X0046828Y0045308D01*
X0046767Y0045307D01*
X0046706Y0045310D01*
X0046645Y0045317D01*
X0046585Y0045328D01*
X0046526Y0045343D01*
X0046467Y0045361D01*
X0046411Y0045383D01*
X0046355Y0045409D01*
X0046302Y0045438D01*
X0046250Y0045471D01*
X0046201Y0045507D01*
X0046154Y0045546D01*
X0046110Y0045589D01*
X0046068Y0045634D01*
X0046030Y0045681D01*
X0045995Y0045731D01*
X0045963Y0045783D01*
X0045934Y0045837D01*
X0045909Y0045893D01*
X0045888Y0045950D01*
X0045870Y0046008D01*
X0045857Y0046068D01*
X0045847Y0046128D01*
X0045841Y0046189D01*
X0045839Y0046250D01*
X0038521Y0041902D02*
X0038521Y0040167D01*
X0037653Y0039300D01*
X0036786Y0040167D01*
X0036786Y0041902D01*
X0035574Y0041469D02*
X0035574Y0041035D01*
X0035141Y0040601D01*
X0034273Y0040601D01*
X0033839Y0041035D01*
X0033839Y0041469D01*
X0034273Y0041902D01*
X0035141Y0041902D01*
X0035574Y0041469D01*
X0035141Y0040601D02*
X0035574Y0040167D01*
X0035574Y0039734D01*
X0035141Y0039300D01*
X0034273Y0039300D01*
X0033839Y0039734D01*
X0033839Y0040167D01*
X0034273Y0040601D01*
X0032628Y0039300D02*
X0030893Y0039300D01*
X0031760Y0039300D02*
X0031760Y0041902D01*
X0030893Y0041035D01*
D11*
X0041307Y0036500D02*
X0049432Y0031500D01*
X0041307Y0026500D01*
X0037557Y0018500D02*
X0037557Y0014500D01*
X0033729Y0009250D02*
X0033731Y0009360D01*
X0033737Y0009471D01*
X0033747Y0009581D01*
X0033761Y0009691D01*
X0033778Y0009800D01*
X0033800Y0009908D01*
X0033826Y0010015D01*
X0033855Y0010122D01*
X0033888Y0010227D01*
X0033925Y0010332D01*
X0033966Y0010434D01*
X0034010Y0010535D01*
X0034058Y0010635D01*
X0034110Y0010733D01*
X0034165Y0010829D01*
X0034223Y0010923D01*
X0034285Y0011014D01*
X0034350Y0011104D01*
X0034418Y0011191D01*
X0034489Y0011275D01*
X0034563Y0011357D01*
X0034640Y0011436D01*
X0034720Y0011513D01*
X0034803Y0011586D01*
X0034888Y0011656D01*
X0034976Y0011724D01*
X0035065Y0011788D01*
X0035158Y0011849D01*
X0035252Y0011906D01*
X0035348Y0011960D01*
X0035447Y0012011D01*
X0035547Y0012058D01*
X0035648Y0012102D01*
X0035751Y0012141D01*
X0035856Y0012177D01*
X0035962Y0012210D01*
X0036068Y0012238D01*
X0036176Y0012263D01*
X0036285Y0012283D01*
X0036394Y0012300D01*
X0036504Y0012313D01*
X0036614Y0012322D01*
X0036724Y0012327D01*
X0036835Y0012328D01*
X0036945Y0012325D01*
X0037055Y0012318D01*
X0037165Y0012307D01*
X0037275Y0012292D01*
X0037384Y0012273D01*
X0037492Y0012251D01*
X0037599Y0012224D01*
X0037705Y0012194D01*
X0037811Y0012160D01*
X0037914Y0012122D01*
X0038017Y0012080D01*
X0038118Y0012035D01*
X0038217Y0011986D01*
X0038314Y0011934D01*
X0038409Y0011878D01*
X0038503Y0011819D01*
X0038594Y0011756D01*
X0038683Y0011691D01*
X0038769Y0011622D01*
X0038853Y0011550D01*
X0038934Y0011475D01*
X0039013Y0011397D01*
X0039088Y0011316D01*
X0039161Y0011233D01*
X0039231Y0011147D01*
X0039297Y0011059D01*
X0039360Y0010969D01*
X0039421Y0010876D01*
X0039477Y0010781D01*
X0039530Y0010684D01*
X0039580Y0010585D01*
X0039626Y0010485D01*
X0039669Y0010383D01*
X0039708Y0010280D01*
X0039743Y0010175D01*
X0039774Y0010069D01*
X0039802Y0009962D01*
X0039825Y0009854D01*
X0039845Y0009745D01*
X0039861Y0009636D01*
X0039873Y0009526D01*
X0039881Y0009416D01*
X0039885Y0009305D01*
X0039885Y0009195D01*
X0039881Y0009084D01*
X0039873Y0008974D01*
X0039861Y0008864D01*
X0039845Y0008755D01*
X0039825Y0008646D01*
X0039802Y0008538D01*
X0039774Y0008431D01*
X0039743Y0008325D01*
X0039708Y0008220D01*
X0039669Y0008117D01*
X0039626Y0008015D01*
X0039580Y0007915D01*
X0039530Y0007816D01*
X0039477Y0007719D01*
X0039421Y0007624D01*
X0039360Y0007531D01*
X0039297Y0007441D01*
X0039231Y0007353D01*
X0039161Y0007267D01*
X0039088Y0007184D01*
X0039013Y0007103D01*
X0038934Y0007025D01*
X0038853Y0006950D01*
X0038769Y0006878D01*
X0038683Y0006809D01*
X0038594Y0006744D01*
X0038503Y0006681D01*
X0038409Y0006622D01*
X0038314Y0006566D01*
X0038217Y0006514D01*
X0038118Y0006465D01*
X0038017Y0006420D01*
X0037914Y0006378D01*
X0037811Y0006340D01*
X0037705Y0006306D01*
X0037599Y0006276D01*
X0037492Y0006249D01*
X0037384Y0006227D01*
X0037275Y0006208D01*
X0037165Y0006193D01*
X0037055Y0006182D01*
X0036945Y0006175D01*
X0036835Y0006172D01*
X0036724Y0006173D01*
X0036614Y0006178D01*
X0036504Y0006187D01*
X0036394Y0006200D01*
X0036285Y0006217D01*
X0036176Y0006237D01*
X0036068Y0006262D01*
X0035962Y0006290D01*
X0035856Y0006323D01*
X0035751Y0006359D01*
X0035648Y0006398D01*
X0035547Y0006442D01*
X0035447Y0006489D01*
X0035348Y0006540D01*
X0035252Y0006594D01*
X0035158Y0006651D01*
X0035065Y0006712D01*
X0034976Y0006776D01*
X0034888Y0006844D01*
X0034803Y0006914D01*
X0034720Y0006987D01*
X0034640Y0007064D01*
X0034563Y0007143D01*
X0034489Y0007225D01*
X0034418Y0007309D01*
X0034350Y0007396D01*
X0034285Y0007486D01*
X0034223Y0007577D01*
X0034165Y0007671D01*
X0034110Y0007767D01*
X0034058Y0007865D01*
X0034010Y0007965D01*
X0033966Y0008066D01*
X0033925Y0008168D01*
X0033888Y0008273D01*
X0033855Y0008378D01*
X0033826Y0008485D01*
X0033800Y0008592D01*
X0033778Y0008700D01*
X0033761Y0008809D01*
X0033747Y0008919D01*
X0033737Y0009029D01*
X0033731Y0009140D01*
X0033729Y0009250D01*
X0049432Y0021500D02*
X0049432Y0031500D01*
X0058182Y0026500D01*
X0058182Y0036500D02*
X0049432Y0031500D01*
X0049432Y0041500D01*
X0054682Y0053375D02*
X0058682Y0053375D01*
X0058682Y0067125D02*
X0054682Y0067125D01*
X0046338Y0072906D02*
X0034527Y0072906D01*
X0034527Y0061094D02*
X0046338Y0061094D01*
X0059229Y0009500D02*
X0059231Y0009610D01*
X0059237Y0009721D01*
X0059247Y0009831D01*
X0059261Y0009941D01*
X0059278Y0010050D01*
X0059300Y0010158D01*
X0059326Y0010265D01*
X0059355Y0010372D01*
X0059388Y0010477D01*
X0059425Y0010582D01*
X0059466Y0010684D01*
X0059510Y0010785D01*
X0059558Y0010885D01*
X0059610Y0010983D01*
X0059665Y0011079D01*
X0059723Y0011173D01*
X0059785Y0011264D01*
X0059850Y0011354D01*
X0059918Y0011441D01*
X0059989Y0011525D01*
X0060063Y0011607D01*
X0060140Y0011686D01*
X0060220Y0011763D01*
X0060303Y0011836D01*
X0060388Y0011906D01*
X0060476Y0011974D01*
X0060565Y0012038D01*
X0060658Y0012099D01*
X0060752Y0012156D01*
X0060848Y0012210D01*
X0060947Y0012261D01*
X0061047Y0012308D01*
X0061148Y0012352D01*
X0061251Y0012391D01*
X0061356Y0012427D01*
X0061462Y0012460D01*
X0061568Y0012488D01*
X0061676Y0012513D01*
X0061785Y0012533D01*
X0061894Y0012550D01*
X0062004Y0012563D01*
X0062114Y0012572D01*
X0062224Y0012577D01*
X0062335Y0012578D01*
X0062445Y0012575D01*
X0062555Y0012568D01*
X0062665Y0012557D01*
X0062775Y0012542D01*
X0062884Y0012523D01*
X0062992Y0012501D01*
X0063099Y0012474D01*
X0063205Y0012444D01*
X0063311Y0012410D01*
X0063414Y0012372D01*
X0063517Y0012330D01*
X0063618Y0012285D01*
X0063717Y0012236D01*
X0063814Y0012184D01*
X0063909Y0012128D01*
X0064003Y0012069D01*
X0064094Y0012006D01*
X0064183Y0011941D01*
X0064269Y0011872D01*
X0064353Y0011800D01*
X0064434Y0011725D01*
X0064513Y0011647D01*
X0064588Y0011566D01*
X0064661Y0011483D01*
X0064731Y0011397D01*
X0064797Y0011309D01*
X0064860Y0011219D01*
X0064921Y0011126D01*
X0064977Y0011031D01*
X0065030Y0010934D01*
X0065080Y0010835D01*
X0065126Y0010735D01*
X0065169Y0010633D01*
X0065208Y0010530D01*
X0065243Y0010425D01*
X0065274Y0010319D01*
X0065302Y0010212D01*
X0065325Y0010104D01*
X0065345Y0009995D01*
X0065361Y0009886D01*
X0065373Y0009776D01*
X0065381Y0009666D01*
X0065385Y0009555D01*
X0065385Y0009445D01*
X0065381Y0009334D01*
X0065373Y0009224D01*
X0065361Y0009114D01*
X0065345Y0009005D01*
X0065325Y0008896D01*
X0065302Y0008788D01*
X0065274Y0008681D01*
X0065243Y0008575D01*
X0065208Y0008470D01*
X0065169Y0008367D01*
X0065126Y0008265D01*
X0065080Y0008165D01*
X0065030Y0008066D01*
X0064977Y0007969D01*
X0064921Y0007874D01*
X0064860Y0007781D01*
X0064797Y0007691D01*
X0064731Y0007603D01*
X0064661Y0007517D01*
X0064588Y0007434D01*
X0064513Y0007353D01*
X0064434Y0007275D01*
X0064353Y0007200D01*
X0064269Y0007128D01*
X0064183Y0007059D01*
X0064094Y0006994D01*
X0064003Y0006931D01*
X0063909Y0006872D01*
X0063814Y0006816D01*
X0063717Y0006764D01*
X0063618Y0006715D01*
X0063517Y0006670D01*
X0063414Y0006628D01*
X0063311Y0006590D01*
X0063205Y0006556D01*
X0063099Y0006526D01*
X0062992Y0006499D01*
X0062884Y0006477D01*
X0062775Y0006458D01*
X0062665Y0006443D01*
X0062555Y0006432D01*
X0062445Y0006425D01*
X0062335Y0006422D01*
X0062224Y0006423D01*
X0062114Y0006428D01*
X0062004Y0006437D01*
X0061894Y0006450D01*
X0061785Y0006467D01*
X0061676Y0006487D01*
X0061568Y0006512D01*
X0061462Y0006540D01*
X0061356Y0006573D01*
X0061251Y0006609D01*
X0061148Y0006648D01*
X0061047Y0006692D01*
X0060947Y0006739D01*
X0060848Y0006790D01*
X0060752Y0006844D01*
X0060658Y0006901D01*
X0060565Y0006962D01*
X0060476Y0007026D01*
X0060388Y0007094D01*
X0060303Y0007164D01*
X0060220Y0007237D01*
X0060140Y0007314D01*
X0060063Y0007393D01*
X0059989Y0007475D01*
X0059918Y0007559D01*
X0059850Y0007646D01*
X0059785Y0007736D01*
X0059723Y0007827D01*
X0059665Y0007921D01*
X0059610Y0008017D01*
X0059558Y0008115D01*
X0059510Y0008215D01*
X0059466Y0008316D01*
X0059425Y0008418D01*
X0059388Y0008523D01*
X0059355Y0008628D01*
X0059326Y0008735D01*
X0059300Y0008842D01*
X0059278Y0008950D01*
X0059261Y0009059D01*
X0059247Y0009169D01*
X0059237Y0009279D01*
X0059231Y0009390D01*
X0059229Y0009500D01*
D12*
X0059691Y0101374D02*
X0060141Y0101374D01*
X0060592Y0101825D01*
X0060592Y0104077D01*
X0059241Y0104077D01*
X0058790Y0103626D01*
X0058790Y0102725D01*
X0059241Y0102275D01*
X0060592Y0102275D01*
X0061553Y0102725D02*
X0061553Y0104077D01*
X0061553Y0102725D02*
X0062003Y0102275D01*
X0063354Y0102275D01*
X0063354Y0101825D02*
X0062904Y0101374D01*
X0062453Y0101374D01*
X0063354Y0101825D02*
X0063354Y0104077D01*
X0057829Y0103626D02*
X0057829Y0102725D01*
X0057379Y0102275D01*
X0056478Y0102275D01*
X0056028Y0102725D01*
X0056028Y0103626D01*
X0056478Y0104077D01*
X0057379Y0104077D01*
X0057829Y0103626D01*
X0055087Y0102275D02*
X0054186Y0102275D01*
X0054637Y0102275D02*
X0054637Y0104977D01*
X0054186Y0104977D01*
X0053226Y0103626D02*
X0052775Y0104077D01*
X0051424Y0104077D01*
X0051424Y0104977D02*
X0051424Y0102275D01*
X0052775Y0102275D01*
X0053226Y0102725D01*
X0053226Y0103626D01*
X0050463Y0103626D02*
X0050463Y0102725D01*
X0050013Y0102275D01*
X0049112Y0102275D01*
X0048662Y0102725D01*
X0048662Y0103626D01*
X0049112Y0104077D01*
X0050013Y0104077D01*
X0050463Y0103626D01*
X0047701Y0103626D02*
X0047701Y0102275D01*
X0047701Y0103626D02*
X0047250Y0104077D01*
X0045899Y0104077D01*
X0045899Y0102275D01*
X0044938Y0102275D02*
X0044938Y0103626D01*
X0044488Y0104077D01*
X0043587Y0104077D01*
X0043137Y0103626D01*
X0042176Y0104077D02*
X0040825Y0104077D01*
X0040375Y0103626D01*
X0040375Y0102725D01*
X0040825Y0102275D01*
X0042176Y0102275D01*
X0043137Y0102275D02*
X0043137Y0104977D01*
X0039414Y0103626D02*
X0039414Y0103176D01*
X0037612Y0103176D01*
X0037612Y0103626D02*
X0037612Y0102725D01*
X0038063Y0102275D01*
X0038963Y0102275D01*
X0039414Y0103626D02*
X0038963Y0104077D01*
X0038063Y0104077D01*
X0037612Y0103626D01*
X0036651Y0104977D02*
X0034850Y0104977D01*
X0035751Y0104977D02*
X0035751Y0102275D01*
D13*
X0031834Y0105685D02*
X0031834Y0111000D01*
X0067031Y0111000D01*
X0067031Y0105685D01*
X0067031Y0095252D02*
X0067031Y0089937D01*
X0061035Y0093869D02*
X0061035Y0094302D01*
X0061035Y0093869D02*
X0060168Y0093001D01*
X0060168Y0091700D01*
X0060168Y0093001D02*
X0059301Y0093869D01*
X0059301Y0094302D01*
X0058273Y0093435D02*
X0058273Y0091700D01*
X0058273Y0093001D02*
X0056538Y0093001D01*
X0056538Y0093435D02*
X0057406Y0094302D01*
X0058273Y0093435D01*
X0056538Y0093435D02*
X0056538Y0091700D01*
X0055511Y0091700D02*
X0055511Y0094302D01*
X0053776Y0094302D02*
X0053776Y0091700D01*
X0054643Y0092567D01*
X0055511Y0091700D01*
X0052748Y0093869D02*
X0052748Y0094302D01*
X0052748Y0093869D02*
X0051881Y0093001D01*
X0051881Y0091700D01*
X0051881Y0093001D02*
X0051014Y0093869D01*
X0051014Y0094302D01*
X0049986Y0093435D02*
X0049986Y0091700D01*
X0049986Y0093001D02*
X0048251Y0093001D01*
X0048251Y0093435D02*
X0049119Y0094302D01*
X0049986Y0093435D01*
X0048251Y0093435D02*
X0048251Y0091700D01*
X0047224Y0091700D02*
X0047224Y0094302D01*
X0045489Y0094302D02*
X0045489Y0091700D01*
X0046356Y0092567D01*
X0047224Y0091700D01*
X0044461Y0093869D02*
X0044461Y0094302D01*
X0044461Y0093869D02*
X0043594Y0093001D01*
X0043594Y0091700D01*
X0043594Y0093001D02*
X0042727Y0093869D01*
X0042727Y0094302D01*
X0041699Y0093435D02*
X0041699Y0091700D01*
X0041699Y0093001D02*
X0039964Y0093001D01*
X0039964Y0093435D02*
X0040832Y0094302D01*
X0041699Y0093435D01*
X0039964Y0093435D02*
X0039964Y0091700D01*
X0038937Y0091700D02*
X0038937Y0094302D01*
X0037202Y0094302D02*
X0037202Y0091700D01*
X0038069Y0092567D01*
X0038937Y0091700D01*
X0031834Y0089937D02*
X0031834Y0095252D01*
D14*
X0036807Y0010812D02*
X0036807Y0007688D01*
X0038370Y0009250D02*
X0035245Y0009250D01*
X0060745Y0009500D02*
X0063870Y0009500D01*
D15*
X0043976Y0058732D02*
X0043978Y0058788D01*
X0043984Y0058843D01*
X0043994Y0058897D01*
X0044007Y0058951D01*
X0044025Y0059004D01*
X0044046Y0059055D01*
X0044070Y0059105D01*
X0044098Y0059153D01*
X0044130Y0059199D01*
X0044164Y0059243D01*
X0044202Y0059284D01*
X0044242Y0059322D01*
X0044285Y0059357D01*
X0044330Y0059389D01*
X0044378Y0059418D01*
X0044427Y0059444D01*
X0044478Y0059466D01*
X0044530Y0059484D01*
X0044584Y0059498D01*
X0044639Y0059509D01*
X0044694Y0059516D01*
X0044749Y0059519D01*
X0044805Y0059518D01*
X0044860Y0059513D01*
X0044915Y0059504D01*
X0044969Y0059492D01*
X0045022Y0059475D01*
X0045074Y0059455D01*
X0045124Y0059431D01*
X0045172Y0059404D01*
X0045219Y0059374D01*
X0045263Y0059340D01*
X0045305Y0059303D01*
X0045343Y0059263D01*
X0045380Y0059221D01*
X0045413Y0059176D01*
X0045442Y0059130D01*
X0045469Y0059081D01*
X0045491Y0059030D01*
X0045511Y0058978D01*
X0045526Y0058924D01*
X0045538Y0058870D01*
X0045546Y0058815D01*
X0045550Y0058760D01*
X0045550Y0058704D01*
X0045546Y0058649D01*
X0045538Y0058594D01*
X0045526Y0058540D01*
X0045511Y0058486D01*
X0045491Y0058434D01*
X0045469Y0058383D01*
X0045442Y0058334D01*
X0045413Y0058288D01*
X0045380Y0058243D01*
X0045343Y0058201D01*
X0045305Y0058161D01*
X0045263Y0058124D01*
X0045219Y0058090D01*
X0045172Y0058060D01*
X0045124Y0058033D01*
X0045074Y0058009D01*
X0045022Y0057989D01*
X0044969Y0057972D01*
X0044915Y0057960D01*
X0044860Y0057951D01*
X0044805Y0057946D01*
X0044749Y0057945D01*
X0044694Y0057948D01*
X0044639Y0057955D01*
X0044584Y0057966D01*
X0044530Y0057980D01*
X0044478Y0057998D01*
X0044427Y0058020D01*
X0044378Y0058046D01*
X0044330Y0058075D01*
X0044285Y0058107D01*
X0044242Y0058142D01*
X0044202Y0058180D01*
X0044164Y0058221D01*
X0044130Y0058265D01*
X0044098Y0058311D01*
X0044070Y0058359D01*
X0044046Y0058409D01*
X0044025Y0058460D01*
X0044007Y0058513D01*
X0043994Y0058567D01*
X0043984Y0058621D01*
X0043978Y0058676D01*
X0043976Y0058732D01*
D16*
X0046777Y0059344D02*
X0046777Y0046156D01*
X0033588Y0046156D01*
X0033588Y0059344D01*
X0046777Y0059344D01*
D17*
X0062432Y0016500D03*
M02*
