G75*
%MOIN*%
%OFA0B0*%
%FSLAX25Y25*%
%IPPOS*%
%LPD*%
%AMOC8*
5,1,8,0,0,1.08239X$1,22.5*
%
%ADD10R,0.05118X0.04724*%
%ADD11R,0.04724X0.05118*%
%ADD12C,0.04362*%
%ADD13C,0.06600*%
%ADD14C,0.01000*%
%ADD15C,0.03569*%
%ADD16C,0.01600*%
%ADD17C,0.03200*%
%ADD18C,0.00800*%
%ADD19C,0.03150*%
D10*
X0033807Y0027500D03*
X0033807Y0035500D03*
X0065057Y0035500D03*
X0065057Y0027500D03*
X0065057Y0049375D03*
X0065057Y0057375D03*
X0065057Y0063125D03*
X0065057Y0071125D03*
D11*
X0065307Y0043375D03*
X0057307Y0043375D03*
X0057307Y0019625D03*
X0053432Y0013375D03*
X0045432Y0013375D03*
X0041557Y0019625D03*
X0033557Y0019625D03*
X0065307Y0019625D03*
D12*
X0066440Y0082126D02*
X0066440Y0086488D01*
X0066440Y0098583D02*
X0066440Y0102945D01*
X0032425Y0102945D02*
X0032425Y0098583D01*
X0032425Y0086488D02*
X0032425Y0082126D01*
D13*
X0049432Y0041500D03*
X0049432Y0031500D03*
X0049432Y0021500D03*
X0040592Y0026500D03*
X0040592Y0036500D03*
X0058272Y0036500D03*
X0058272Y0026500D03*
X0054432Y0006500D03*
X0044432Y0006500D03*
D14*
X0041427Y0003000D02*
X0030932Y0003000D01*
X0030932Y0015583D01*
X0030998Y0015566D01*
X0033057Y0015566D01*
X0033057Y0019125D01*
X0034057Y0019125D01*
X0034057Y0015566D01*
X0036117Y0015566D01*
X0036499Y0015668D01*
X0036841Y0015866D01*
X0037120Y0016145D01*
X0037317Y0016487D01*
X0037420Y0016868D01*
X0037420Y0019125D01*
X0034057Y0019125D01*
X0034057Y0020125D01*
X0033057Y0020125D01*
X0033057Y0023638D01*
X0033307Y0023638D01*
X0033307Y0027000D01*
X0034307Y0027000D01*
X0034307Y0023684D01*
X0034057Y0023684D01*
X0034057Y0020125D01*
X0037420Y0020125D01*
X0037420Y0022382D01*
X0037317Y0022763D01*
X0037120Y0023105D01*
X0036841Y0023384D01*
X0036499Y0023582D01*
X0036290Y0023638D01*
X0036564Y0023638D01*
X0036868Y0023719D01*
X0037895Y0022692D01*
X0037895Y0016527D01*
X0038657Y0015766D01*
X0041770Y0015766D01*
X0041770Y0010343D01*
X0040533Y0009106D01*
X0039832Y0007415D01*
X0039832Y0005585D01*
X0040533Y0003894D01*
X0041427Y0003000D01*
X0040501Y0003970D02*
X0030932Y0003970D01*
X0030932Y0004969D02*
X0040088Y0004969D01*
X0039832Y0005967D02*
X0030932Y0005967D01*
X0030932Y0006966D02*
X0039832Y0006966D01*
X0040060Y0007964D02*
X0030932Y0007964D01*
X0030932Y0008963D02*
X0040474Y0008963D01*
X0041388Y0009961D02*
X0030932Y0009961D01*
X0030932Y0010960D02*
X0041770Y0010960D01*
X0041770Y0011958D02*
X0030932Y0011958D01*
X0030932Y0012957D02*
X0041770Y0012957D01*
X0041770Y0013955D02*
X0030932Y0013955D01*
X0030932Y0014954D02*
X0041770Y0014954D01*
X0038470Y0015952D02*
X0036927Y0015952D01*
X0037420Y0016951D02*
X0037895Y0016951D01*
X0037895Y0017949D02*
X0037420Y0017949D01*
X0037420Y0018948D02*
X0037895Y0018948D01*
X0037895Y0019946D02*
X0034057Y0019946D01*
X0034057Y0018948D02*
X0033057Y0018948D01*
X0033057Y0017949D02*
X0034057Y0017949D01*
X0034057Y0016951D02*
X0033057Y0016951D01*
X0033057Y0015952D02*
X0034057Y0015952D01*
X0034057Y0020945D02*
X0033057Y0020945D01*
X0033057Y0021943D02*
X0034057Y0021943D01*
X0034057Y0022942D02*
X0033057Y0022942D01*
X0033307Y0023940D02*
X0034307Y0023940D01*
X0034307Y0024939D02*
X0033307Y0024939D01*
X0033307Y0025937D02*
X0034307Y0025937D01*
X0034307Y0026936D02*
X0033307Y0026936D01*
X0033307Y0028000D02*
X0033307Y0031362D01*
X0031051Y0031362D01*
X0030932Y0031330D01*
X0030932Y0031838D01*
X0036905Y0031838D01*
X0037666Y0032599D01*
X0037666Y0032921D01*
X0037987Y0032600D01*
X0039677Y0031900D01*
X0041507Y0031900D01*
X0043198Y0032600D01*
X0044492Y0033894D01*
X0045192Y0035585D01*
X0045192Y0036461D01*
X0046540Y0035113D01*
X0045533Y0034106D01*
X0044832Y0032415D01*
X0044832Y0030585D01*
X0045533Y0028894D01*
X0046827Y0027600D01*
X0048517Y0026900D01*
X0050347Y0026900D01*
X0052038Y0027600D01*
X0053332Y0028894D01*
X0054032Y0030585D01*
X0054032Y0032415D01*
X0053332Y0034106D01*
X0052038Y0035400D01*
X0050372Y0036090D01*
X0050137Y0036325D01*
X0049562Y0036900D01*
X0050347Y0036900D01*
X0052038Y0037600D01*
X0053332Y0038894D01*
X0053829Y0040094D01*
X0054407Y0039516D01*
X0054531Y0039516D01*
X0054167Y0039016D01*
X0053824Y0038343D01*
X0053591Y0037624D01*
X0053489Y0036984D01*
X0057788Y0036984D01*
X0057788Y0036016D01*
X0053489Y0036016D01*
X0053591Y0035376D01*
X0053824Y0034657D01*
X0054167Y0033984D01*
X0054611Y0033373D01*
X0055145Y0032839D01*
X0055757Y0032395D01*
X0056430Y0032052D01*
X0057148Y0031818D01*
X0057788Y0031717D01*
X0057788Y0036016D01*
X0058757Y0036016D01*
X0058757Y0031717D01*
X0059396Y0031818D01*
X0060115Y0032052D01*
X0060788Y0032395D01*
X0061087Y0032611D01*
X0061101Y0032559D01*
X0061298Y0032217D01*
X0061577Y0031937D01*
X0061919Y0031740D01*
X0062301Y0031638D01*
X0064557Y0031638D01*
X0064557Y0035000D01*
X0065557Y0035000D01*
X0065557Y0031638D01*
X0067814Y0031638D01*
X0067932Y0031670D01*
X0067932Y0031162D01*
X0061960Y0031162D01*
X0061198Y0030401D01*
X0061198Y0030079D01*
X0060878Y0030400D01*
X0059187Y0031100D01*
X0057357Y0031100D01*
X0055667Y0030400D01*
X0054373Y0029106D01*
X0053672Y0027415D01*
X0053672Y0025585D01*
X0054373Y0023894D01*
X0054783Y0023484D01*
X0054407Y0023484D01*
X0053829Y0022906D01*
X0053332Y0024106D01*
X0052038Y0025400D01*
X0050347Y0026100D01*
X0048517Y0026100D01*
X0046827Y0025400D01*
X0045533Y0024106D01*
X0045036Y0022906D01*
X0044458Y0023484D01*
X0044082Y0023484D01*
X0044492Y0023894D01*
X0045192Y0025585D01*
X0045192Y0027415D01*
X0044492Y0029106D01*
X0043198Y0030400D01*
X0041507Y0031100D01*
X0039677Y0031100D01*
X0037987Y0030400D01*
X0037820Y0030233D01*
X0037764Y0030441D01*
X0037567Y0030783D01*
X0037288Y0031062D01*
X0036945Y0031260D01*
X0036564Y0031362D01*
X0034307Y0031362D01*
X0034307Y0028000D01*
X0033307Y0028000D01*
X0033307Y0028933D02*
X0034307Y0028933D01*
X0034307Y0029932D02*
X0033307Y0029932D01*
X0033307Y0030930D02*
X0034307Y0030930D01*
X0036996Y0031929D02*
X0039609Y0031929D01*
X0039267Y0030930D02*
X0037420Y0030930D01*
X0041576Y0031929D02*
X0044832Y0031929D01*
X0044832Y0030930D02*
X0041918Y0030930D01*
X0043666Y0029932D02*
X0045103Y0029932D01*
X0045517Y0028933D02*
X0044564Y0028933D01*
X0044977Y0027934D02*
X0046493Y0027934D01*
X0045192Y0026936D02*
X0048431Y0026936D01*
X0048125Y0025937D02*
X0045192Y0025937D01*
X0044925Y0024939D02*
X0046366Y0024939D01*
X0045464Y0023940D02*
X0044511Y0023940D01*
X0045000Y0022942D02*
X0045051Y0022942D01*
X0048667Y0016900D02*
X0049915Y0016900D01*
X0049870Y0016855D01*
X0049672Y0016513D01*
X0049570Y0016132D01*
X0049570Y0013875D01*
X0052932Y0013875D01*
X0052932Y0012875D01*
X0049570Y0012875D01*
X0049570Y0010618D01*
X0049672Y0010237D01*
X0049870Y0009895D01*
X0050149Y0009616D01*
X0050491Y0009418D01*
X0050599Y0009389D01*
X0050327Y0009016D01*
X0049984Y0008343D01*
X0049751Y0007624D01*
X0049649Y0006984D01*
X0053948Y0006984D01*
X0053948Y0006016D01*
X0049649Y0006016D01*
X0049751Y0005376D01*
X0049984Y0004657D01*
X0050327Y0003984D01*
X0050771Y0003373D01*
X0051144Y0003000D01*
X0047438Y0003000D01*
X0048332Y0003894D01*
X0049032Y0005585D01*
X0049032Y0007415D01*
X0048332Y0009105D01*
X0048332Y0009516D01*
X0048333Y0009516D01*
X0049095Y0010277D01*
X0049095Y0016473D01*
X0048667Y0016900D01*
X0049095Y0015952D02*
X0049570Y0015952D01*
X0049570Y0014954D02*
X0049095Y0014954D01*
X0049095Y0013955D02*
X0049570Y0013955D01*
X0049095Y0012957D02*
X0052932Y0012957D01*
X0052932Y0013875D02*
X0052932Y0017434D01*
X0051637Y0017434D01*
X0052038Y0017600D01*
X0052363Y0017925D01*
X0053645Y0017925D01*
X0053645Y0016527D01*
X0053932Y0016240D01*
X0053932Y0013875D01*
X0052932Y0013875D01*
X0052932Y0013955D02*
X0053932Y0013955D01*
X0053932Y0013875D02*
X0057295Y0013875D01*
X0057295Y0015766D01*
X0060208Y0015766D01*
X0060970Y0016527D01*
X0060970Y0022692D01*
X0062116Y0023838D01*
X0067932Y0023838D01*
X0067932Y0023667D01*
X0067867Y0023684D01*
X0065807Y0023684D01*
X0065807Y0020125D01*
X0064807Y0020125D01*
X0064807Y0019125D01*
X0061445Y0019125D01*
X0061445Y0016868D01*
X0061547Y0016487D01*
X0061745Y0016145D01*
X0062024Y0015866D01*
X0062366Y0015668D01*
X0062748Y0015566D01*
X0064807Y0015566D01*
X0064807Y0019125D01*
X0065807Y0019125D01*
X0065807Y0015566D01*
X0067867Y0015566D01*
X0067932Y0015583D01*
X0067932Y0003000D01*
X0057721Y0003000D01*
X0058094Y0003373D01*
X0058538Y0003984D01*
X0058881Y0004657D01*
X0059114Y0005376D01*
X0059216Y0006016D01*
X0054917Y0006016D01*
X0054917Y0006984D01*
X0059216Y0006984D01*
X0059114Y0007624D01*
X0058881Y0008343D01*
X0058538Y0009016D01*
X0058094Y0009627D01*
X0057559Y0010161D01*
X0057235Y0010397D01*
X0057295Y0010618D01*
X0057295Y0012875D01*
X0053932Y0012875D01*
X0053932Y0013875D01*
X0053932Y0012957D02*
X0067932Y0012957D01*
X0067932Y0013955D02*
X0057295Y0013955D01*
X0057295Y0014954D02*
X0067932Y0014954D01*
X0065807Y0015952D02*
X0064807Y0015952D01*
X0064807Y0016951D02*
X0065807Y0016951D01*
X0065807Y0017949D02*
X0064807Y0017949D01*
X0064807Y0018948D02*
X0065807Y0018948D01*
X0064807Y0019946D02*
X0060970Y0019946D01*
X0061445Y0020125D02*
X0064807Y0020125D01*
X0064807Y0023684D01*
X0062748Y0023684D01*
X0062366Y0023582D01*
X0062024Y0023384D01*
X0061745Y0023105D01*
X0061547Y0022763D01*
X0061445Y0022382D01*
X0061445Y0020125D01*
X0061445Y0020945D02*
X0060970Y0020945D01*
X0060970Y0021943D02*
X0061445Y0021943D01*
X0061651Y0022942D02*
X0061220Y0022942D01*
X0064807Y0022942D02*
X0065807Y0022942D01*
X0065807Y0021943D02*
X0064807Y0021943D01*
X0064807Y0020945D02*
X0065807Y0020945D01*
X0061937Y0015952D02*
X0060395Y0015952D01*
X0060970Y0016951D02*
X0061445Y0016951D01*
X0061445Y0017949D02*
X0060970Y0017949D01*
X0060970Y0018948D02*
X0061445Y0018948D01*
X0057295Y0011958D02*
X0067932Y0011958D01*
X0067932Y0010960D02*
X0057295Y0010960D01*
X0057759Y0009961D02*
X0067932Y0009961D01*
X0067932Y0008963D02*
X0058565Y0008963D01*
X0059004Y0007964D02*
X0067932Y0007964D01*
X0067932Y0006966D02*
X0054917Y0006966D01*
X0053948Y0006966D02*
X0049032Y0006966D01*
X0049032Y0005967D02*
X0049657Y0005967D01*
X0049883Y0004969D02*
X0048777Y0004969D01*
X0048364Y0003970D02*
X0050337Y0003970D01*
X0049861Y0007964D02*
X0048805Y0007964D01*
X0048391Y0008963D02*
X0050300Y0008963D01*
X0049832Y0009961D02*
X0048778Y0009961D01*
X0049095Y0010960D02*
X0049570Y0010960D01*
X0049570Y0011958D02*
X0049095Y0011958D01*
X0052932Y0014954D02*
X0053932Y0014954D01*
X0053932Y0015952D02*
X0052932Y0015952D01*
X0052932Y0016951D02*
X0053645Y0016951D01*
X0053814Y0022942D02*
X0053865Y0022942D01*
X0053401Y0023940D02*
X0054354Y0023940D01*
X0053940Y0024939D02*
X0052499Y0024939D01*
X0053672Y0025937D02*
X0050740Y0025937D01*
X0050434Y0026936D02*
X0053672Y0026936D01*
X0053888Y0027934D02*
X0052372Y0027934D01*
X0053348Y0028933D02*
X0054301Y0028933D01*
X0053762Y0029932D02*
X0055199Y0029932D01*
X0054032Y0030930D02*
X0056947Y0030930D01*
X0056809Y0031929D02*
X0054032Y0031929D01*
X0053820Y0032927D02*
X0055057Y0032927D01*
X0054210Y0033926D02*
X0053407Y0033926D01*
X0053737Y0034924D02*
X0052514Y0034924D01*
X0053504Y0035923D02*
X0050776Y0035923D01*
X0050398Y0036921D02*
X0057788Y0036921D01*
X0057788Y0035923D02*
X0058757Y0035923D01*
X0058757Y0034924D02*
X0057788Y0034924D01*
X0057788Y0033926D02*
X0058757Y0033926D01*
X0058757Y0032927D02*
X0057788Y0032927D01*
X0057788Y0031929D02*
X0058757Y0031929D01*
X0059736Y0031929D02*
X0061593Y0031929D01*
X0061728Y0030930D02*
X0059598Y0030930D01*
X0064557Y0031929D02*
X0065557Y0031929D01*
X0065557Y0032927D02*
X0064557Y0032927D01*
X0064557Y0033926D02*
X0065557Y0033926D01*
X0065557Y0034924D02*
X0064557Y0034924D01*
X0064557Y0036000D02*
X0064557Y0039316D01*
X0064807Y0039316D01*
X0064807Y0042875D01*
X0061445Y0042875D01*
X0061445Y0040618D01*
X0061547Y0040237D01*
X0061745Y0039895D01*
X0062024Y0039616D01*
X0062366Y0039418D01*
X0062575Y0039362D01*
X0062301Y0039362D01*
X0062155Y0039323D01*
X0061934Y0039627D01*
X0061399Y0040161D01*
X0060970Y0040473D01*
X0060970Y0046473D01*
X0060208Y0047234D01*
X0054407Y0047234D01*
X0054005Y0046832D01*
X0052637Y0048200D01*
X0050137Y0048200D01*
X0048632Y0049704D01*
X0048632Y0054484D01*
X0049054Y0054063D01*
X0050111Y0053625D01*
X0051153Y0053625D01*
X0057103Y0047675D01*
X0061198Y0047675D01*
X0061198Y0046474D01*
X0061466Y0046207D01*
X0061445Y0046132D01*
X0061445Y0043875D01*
X0064807Y0043875D01*
X0064807Y0042875D01*
X0065807Y0042875D01*
X0065807Y0039362D01*
X0065557Y0039362D01*
X0065557Y0036000D01*
X0064557Y0036000D01*
X0064557Y0036921D02*
X0065557Y0036921D01*
X0065557Y0037920D02*
X0064557Y0037920D01*
X0064557Y0038918D02*
X0065557Y0038918D01*
X0065807Y0039917D02*
X0064807Y0039917D01*
X0064807Y0040915D02*
X0065807Y0040915D01*
X0065807Y0041914D02*
X0064807Y0041914D01*
X0064807Y0042912D02*
X0060970Y0042912D01*
X0060970Y0041914D02*
X0061445Y0041914D01*
X0061445Y0040915D02*
X0060970Y0040915D01*
X0061644Y0039917D02*
X0061732Y0039917D01*
X0061445Y0043911D02*
X0060970Y0043911D01*
X0060970Y0044909D02*
X0061445Y0044909D01*
X0061445Y0045908D02*
X0060970Y0045908D01*
X0061198Y0046906D02*
X0060536Y0046906D01*
X0056874Y0047905D02*
X0052932Y0047905D01*
X0053930Y0046906D02*
X0054079Y0046906D01*
X0055875Y0048903D02*
X0049433Y0048903D01*
X0048632Y0049902D02*
X0054877Y0049902D01*
X0053878Y0050900D02*
X0048632Y0050900D01*
X0048632Y0051899D02*
X0052880Y0051899D01*
X0051881Y0052897D02*
X0048632Y0052897D01*
X0048632Y0053896D02*
X0049457Y0053896D01*
X0045932Y0059904D02*
X0043887Y0061950D01*
X0042478Y0061950D01*
X0036173Y0061950D01*
X0035436Y0062687D01*
X0034379Y0063125D01*
X0033236Y0063125D01*
X0033007Y0063030D01*
X0033007Y0071125D01*
X0033129Y0071125D01*
X0034186Y0071563D01*
X0034995Y0072371D01*
X0035432Y0073428D01*
X0035432Y0074572D01*
X0034995Y0075629D01*
X0034186Y0076437D01*
X0033129Y0076875D01*
X0031986Y0076875D01*
X0030932Y0076439D01*
X0030932Y0078976D01*
X0031732Y0078645D01*
X0033117Y0078645D01*
X0034396Y0079175D01*
X0035376Y0080154D01*
X0035906Y0081434D01*
X0035906Y0084494D01*
X0036480Y0083919D01*
X0037502Y0083496D01*
X0038607Y0083496D01*
X0039629Y0083919D01*
X0040411Y0084701D01*
X0040834Y0085723D01*
X0040834Y0086828D01*
X0040411Y0087850D01*
X0039629Y0088632D01*
X0038607Y0089055D01*
X0037502Y0089055D01*
X0036480Y0088632D01*
X0035698Y0087850D01*
X0035663Y0087766D01*
X0035376Y0088460D01*
X0034396Y0089439D01*
X0033117Y0089969D01*
X0031732Y0089969D01*
X0030932Y0089638D01*
X0030932Y0095433D01*
X0031732Y0095102D01*
X0033117Y0095102D01*
X0034396Y0095632D01*
X0035376Y0096611D01*
X0035906Y0097890D01*
X0035906Y0103637D01*
X0035376Y0104917D01*
X0035292Y0105000D01*
X0063572Y0105000D01*
X0063489Y0104917D01*
X0062959Y0103637D01*
X0062959Y0097890D01*
X0063489Y0096611D01*
X0064468Y0095632D01*
X0065748Y0095102D01*
X0067133Y0095102D01*
X0067932Y0095433D01*
X0067932Y0089638D01*
X0067133Y0089969D01*
X0065748Y0089969D01*
X0064468Y0089439D01*
X0063489Y0088460D01*
X0063202Y0087766D01*
X0063167Y0087850D01*
X0062385Y0088632D01*
X0061363Y0089055D01*
X0060258Y0089055D01*
X0059236Y0088632D01*
X0058454Y0087850D01*
X0058031Y0086828D01*
X0058031Y0085723D01*
X0058454Y0084701D01*
X0059236Y0083919D01*
X0060258Y0083496D01*
X0061363Y0083496D01*
X0062385Y0083919D01*
X0062959Y0084494D01*
X0062959Y0081434D01*
X0063489Y0080154D01*
X0064468Y0079175D01*
X0065748Y0078645D01*
X0067133Y0078645D01*
X0067932Y0078976D01*
X0067932Y0074955D01*
X0067814Y0074987D01*
X0065557Y0074987D01*
X0065557Y0071625D01*
X0064557Y0071625D01*
X0064557Y0070625D01*
X0060998Y0070625D01*
X0060998Y0068565D01*
X0061101Y0068184D01*
X0061298Y0067842D01*
X0061577Y0067563D01*
X0061919Y0067365D01*
X0062301Y0067263D01*
X0064557Y0067263D01*
X0064557Y0070625D01*
X0065557Y0070625D01*
X0065557Y0067263D01*
X0067814Y0067263D01*
X0067932Y0067295D01*
X0067932Y0066787D01*
X0061960Y0066787D01*
X0061198Y0066026D01*
X0061198Y0064825D01*
X0054861Y0064825D01*
X0054186Y0065500D01*
X0053129Y0065938D01*
X0051986Y0065938D01*
X0050929Y0065500D01*
X0050120Y0064692D01*
X0049682Y0063635D01*
X0049682Y0062999D01*
X0049379Y0063125D01*
X0048236Y0063125D01*
X0047179Y0062687D01*
X0046370Y0061879D01*
X0045932Y0060822D01*
X0045932Y0059904D01*
X0045959Y0060885D02*
X0044951Y0060885D01*
X0043953Y0061884D02*
X0046375Y0061884D01*
X0047650Y0062882D02*
X0034965Y0062882D01*
X0033007Y0063881D02*
X0049784Y0063881D01*
X0050308Y0064879D02*
X0033007Y0064879D01*
X0033007Y0065878D02*
X0051841Y0065878D01*
X0053274Y0065878D02*
X0061198Y0065878D01*
X0061198Y0064879D02*
X0054807Y0064879D01*
X0061279Y0067875D02*
X0033007Y0067875D01*
X0033007Y0068873D02*
X0060998Y0068873D01*
X0060998Y0069872D02*
X0033007Y0069872D01*
X0033007Y0070870D02*
X0064557Y0070870D01*
X0064557Y0071625D02*
X0060998Y0071625D01*
X0060998Y0073685D01*
X0061101Y0074066D01*
X0061298Y0074408D01*
X0061577Y0074687D01*
X0061919Y0074885D01*
X0062301Y0074987D01*
X0064557Y0074987D01*
X0064557Y0071625D01*
X0064557Y0071869D02*
X0065557Y0071869D01*
X0065557Y0072868D02*
X0064557Y0072868D01*
X0064557Y0073866D02*
X0065557Y0073866D01*
X0065557Y0074865D02*
X0064557Y0074865D01*
X0061884Y0074865D02*
X0058126Y0074865D01*
X0058307Y0075303D02*
X0057870Y0074246D01*
X0057061Y0073438D01*
X0056004Y0073000D01*
X0054861Y0073000D01*
X0053804Y0073438D01*
X0053067Y0074175D01*
X0049653Y0074175D01*
X0048916Y0073438D01*
X0047859Y0073000D01*
X0046716Y0073000D01*
X0045659Y0073438D01*
X0044850Y0074246D01*
X0044413Y0075303D01*
X0044413Y0076447D01*
X0044850Y0077504D01*
X0045659Y0078312D01*
X0046716Y0078750D01*
X0047859Y0078750D01*
X0048916Y0078312D01*
X0049653Y0077575D01*
X0053067Y0077575D01*
X0053804Y0078312D01*
X0054861Y0078750D01*
X0056004Y0078750D01*
X0057061Y0078312D01*
X0057870Y0077504D01*
X0058307Y0076447D01*
X0058307Y0075303D01*
X0058307Y0075863D02*
X0067932Y0075863D01*
X0067932Y0076862D02*
X0058136Y0076862D01*
X0057513Y0077860D02*
X0067932Y0077860D01*
X0067932Y0078859D02*
X0067649Y0078859D01*
X0065232Y0078859D02*
X0033633Y0078859D01*
X0035079Y0079857D02*
X0063786Y0079857D01*
X0063199Y0080856D02*
X0035666Y0080856D01*
X0035906Y0081854D02*
X0062959Y0081854D01*
X0062959Y0082853D02*
X0035906Y0082853D01*
X0035906Y0083851D02*
X0036644Y0083851D01*
X0039465Y0083851D02*
X0059400Y0083851D01*
X0058392Y0084850D02*
X0040472Y0084850D01*
X0040834Y0085848D02*
X0045478Y0085848D01*
X0045204Y0086121D02*
X0046013Y0085313D01*
X0047070Y0084875D01*
X0048214Y0084875D01*
X0049270Y0085313D01*
X0050008Y0086050D01*
X0050826Y0086050D01*
X0051563Y0085313D01*
X0052620Y0084875D01*
X0053764Y0084875D01*
X0054820Y0085313D01*
X0055629Y0086121D01*
X0056067Y0087178D01*
X0056067Y0088322D01*
X0055629Y0089379D01*
X0054820Y0090187D01*
X0053764Y0090625D01*
X0052620Y0090625D01*
X0051563Y0090187D01*
X0050826Y0089450D01*
X0050008Y0089450D01*
X0049270Y0090187D01*
X0048214Y0090625D01*
X0047070Y0090625D01*
X0046013Y0090187D01*
X0045204Y0089379D01*
X0044767Y0088322D01*
X0044767Y0087178D01*
X0045204Y0086121D01*
X0044904Y0086847D02*
X0040826Y0086847D01*
X0040413Y0087845D02*
X0044767Y0087845D01*
X0044983Y0088844D02*
X0039118Y0088844D01*
X0036991Y0088844D02*
X0034992Y0088844D01*
X0035630Y0087845D02*
X0035696Y0087845D01*
X0033424Y0089842D02*
X0045668Y0089842D01*
X0049615Y0089842D02*
X0051218Y0089842D01*
X0051028Y0085848D02*
X0049806Y0085848D01*
X0055165Y0089842D02*
X0065441Y0089842D01*
X0063873Y0088844D02*
X0061874Y0088844D01*
X0063169Y0087845D02*
X0063234Y0087845D01*
X0059747Y0088844D02*
X0055851Y0088844D01*
X0056067Y0087845D02*
X0058452Y0087845D01*
X0058038Y0086847D02*
X0055929Y0086847D01*
X0055356Y0085848D02*
X0058031Y0085848D01*
X0062220Y0083851D02*
X0062959Y0083851D01*
X0067440Y0089842D02*
X0067932Y0089842D01*
X0067932Y0090841D02*
X0030932Y0090841D01*
X0030932Y0091839D02*
X0067932Y0091839D01*
X0067932Y0092838D02*
X0030932Y0092838D01*
X0030932Y0093836D02*
X0067932Y0093836D01*
X0067932Y0094835D02*
X0030932Y0094835D01*
X0034598Y0095833D02*
X0064267Y0095833D01*
X0063398Y0096832D02*
X0035467Y0096832D01*
X0035881Y0097830D02*
X0062984Y0097830D01*
X0062959Y0098829D02*
X0035906Y0098829D01*
X0035906Y0099827D02*
X0062959Y0099827D01*
X0062959Y0100826D02*
X0035906Y0100826D01*
X0035906Y0101824D02*
X0062959Y0101824D01*
X0062959Y0102823D02*
X0035906Y0102823D01*
X0035829Y0103821D02*
X0063035Y0103821D01*
X0063449Y0104820D02*
X0035416Y0104820D01*
X0031425Y0089842D02*
X0030932Y0089842D01*
X0030932Y0078859D02*
X0031216Y0078859D01*
X0030932Y0077860D02*
X0045207Y0077860D01*
X0044584Y0076862D02*
X0033162Y0076862D01*
X0034760Y0075863D02*
X0044413Y0075863D01*
X0044594Y0074865D02*
X0035311Y0074865D01*
X0035432Y0073866D02*
X0045231Y0073866D01*
X0049344Y0073866D02*
X0053376Y0073866D01*
X0053352Y0077860D02*
X0049368Y0077860D01*
X0057489Y0073866D02*
X0061047Y0073866D01*
X0060998Y0072868D02*
X0035200Y0072868D01*
X0034492Y0071869D02*
X0060998Y0071869D01*
X0064557Y0069872D02*
X0065557Y0069872D01*
X0065557Y0068873D02*
X0064557Y0068873D01*
X0064557Y0067875D02*
X0065557Y0067875D01*
X0067932Y0066876D02*
X0033007Y0066876D01*
X0031953Y0076862D02*
X0030932Y0076862D01*
X0053756Y0039917D02*
X0054006Y0039917D01*
X0054117Y0038918D02*
X0053342Y0038918D01*
X0053687Y0037920D02*
X0052357Y0037920D01*
X0046351Y0034924D02*
X0044919Y0034924D01*
X0045192Y0035923D02*
X0045731Y0035923D01*
X0045458Y0033926D02*
X0044505Y0033926D01*
X0045045Y0032927D02*
X0043525Y0032927D01*
X0037645Y0022942D02*
X0037214Y0022942D01*
X0037420Y0021943D02*
X0037895Y0021943D01*
X0037895Y0020945D02*
X0037420Y0020945D01*
X0058528Y0003970D02*
X0067932Y0003970D01*
X0067932Y0004969D02*
X0058982Y0004969D01*
X0059208Y0005967D02*
X0067932Y0005967D01*
D15*
X0065682Y0009250D03*
X0040057Y0011250D03*
X0040557Y0067000D03*
X0040807Y0076000D03*
X0036432Y0076000D03*
X0039432Y0099000D03*
X0049307Y0098875D03*
X0059432Y0099000D03*
X0064031Y0075848D03*
D16*
X0065057Y0071125D01*
D17*
X0053432Y0013375D02*
X0053432Y0007500D01*
X0054432Y0006500D01*
X0045432Y0007500D02*
X0044432Y0006500D01*
X0045432Y0007500D02*
X0045432Y0013375D01*
D18*
X0041557Y0019625D02*
X0040592Y0020590D01*
X0040592Y0026500D01*
X0039592Y0035500D02*
X0040592Y0036500D01*
X0039592Y0035500D02*
X0033807Y0035500D01*
X0033807Y0044000D02*
X0040057Y0044000D01*
X0049432Y0034625D01*
X0049432Y0031500D01*
X0049432Y0021500D02*
X0051307Y0019625D01*
X0057307Y0019625D01*
X0058272Y0026500D02*
X0064057Y0026500D01*
X0065057Y0027500D01*
X0065057Y0035500D02*
X0059272Y0035500D01*
X0058272Y0036500D01*
X0057307Y0043375D02*
X0054432Y0044000D01*
X0051932Y0046500D01*
X0049432Y0046500D01*
X0046932Y0049000D01*
X0046932Y0056500D01*
X0043182Y0060250D01*
X0033807Y0060250D01*
X0031307Y0073375D02*
X0032557Y0074000D01*
X0031307Y0073375D02*
X0031307Y0046500D01*
X0033807Y0044000D01*
X0049432Y0059625D02*
X0048807Y0060250D01*
X0049432Y0059625D02*
X0056307Y0059625D01*
X0059432Y0056500D01*
X0063807Y0056500D01*
X0065057Y0057375D01*
X0065057Y0063125D02*
X0051994Y0063125D01*
X0052557Y0063063D01*
X0050682Y0056500D02*
X0057807Y0049375D01*
X0065057Y0049375D01*
X0065307Y0043375D02*
X0065307Y0035750D01*
X0065057Y0035500D01*
X0055432Y0075875D02*
X0047288Y0075875D01*
X0047642Y0087750D02*
X0053192Y0087750D01*
D19*
X0053192Y0087750D03*
X0047642Y0087750D03*
X0047288Y0075875D03*
X0055432Y0075875D03*
X0052557Y0063063D03*
X0048807Y0060250D03*
X0050682Y0056500D03*
X0033807Y0060250D03*
X0032557Y0074000D03*
M02*
