G75*
%MOIN*%
%OFA0B0*%
%FSLAX25Y25*%
%IPPOS*%
%LPD*%
%AMOC8*
5,1,8,0,0,1.08239X$1,22.5*
%
%ADD10C,0.00197*%
%ADD11R,0.01969X0.01969*%
%ADD12R,0.04724X0.02362*%
%ADD13R,0.05118X0.04724*%
%ADD14R,0.01083X0.04528*%
%ADD15C,0.00600*%
%ADD16R,0.01400X0.04500*%
%ADD17R,0.01500X0.04500*%
%ADD18R,0.02756X0.01654*%
%ADD19R,0.04134X0.01772*%
%ADD20R,0.08858X0.09252*%
%ADD21R,0.04724X0.05118*%
%ADD22R,0.04724X0.04724*%
D10*
X0036004Y0062669D02*
X0036004Y0063457D01*
X0036004Y0062669D02*
X0033050Y0062669D01*
X0033050Y0063457D01*
X0036004Y0063457D01*
X0036004Y0062865D02*
X0033050Y0062865D01*
X0033050Y0063061D02*
X0036004Y0063061D01*
X0036004Y0063257D02*
X0033050Y0063257D01*
X0033050Y0063453D02*
X0036004Y0063453D01*
X0036004Y0064637D02*
X0036004Y0065425D01*
X0036004Y0064637D02*
X0033050Y0064637D01*
X0033050Y0065425D01*
X0036004Y0065425D01*
X0036004Y0064833D02*
X0033050Y0064833D01*
X0033050Y0065029D02*
X0036004Y0065029D01*
X0036004Y0065225D02*
X0033050Y0065225D01*
X0033050Y0065421D02*
X0036004Y0065421D01*
X0036004Y0066606D02*
X0036004Y0067394D01*
X0036004Y0066606D02*
X0033050Y0066606D01*
X0033050Y0067394D01*
X0036004Y0067394D01*
X0036004Y0066802D02*
X0033050Y0066802D01*
X0033050Y0066998D02*
X0036004Y0066998D01*
X0036004Y0067194D02*
X0033050Y0067194D01*
X0033050Y0067390D02*
X0036004Y0067390D01*
X0036004Y0068575D02*
X0036004Y0069363D01*
X0036004Y0068575D02*
X0033050Y0068575D01*
X0033050Y0069363D01*
X0036004Y0069363D01*
X0036004Y0068771D02*
X0033050Y0068771D01*
X0033050Y0068967D02*
X0036004Y0068967D01*
X0036004Y0069163D02*
X0033050Y0069163D01*
X0033050Y0069359D02*
X0036004Y0069359D01*
X0036004Y0070543D02*
X0036004Y0071331D01*
X0036004Y0070543D02*
X0033050Y0070543D01*
X0033050Y0071331D01*
X0036004Y0071331D01*
X0036004Y0070739D02*
X0033050Y0070739D01*
X0033050Y0070935D02*
X0036004Y0070935D01*
X0036004Y0071131D02*
X0033050Y0071131D01*
X0033050Y0071327D02*
X0036004Y0071327D01*
X0047815Y0071331D02*
X0047815Y0070543D01*
X0044861Y0070543D01*
X0044861Y0071331D01*
X0047815Y0071331D01*
X0047815Y0070739D02*
X0044861Y0070739D01*
X0044861Y0070935D02*
X0047815Y0070935D01*
X0047815Y0071131D02*
X0044861Y0071131D01*
X0044861Y0071327D02*
X0047815Y0071327D01*
X0047815Y0069363D02*
X0047815Y0068575D01*
X0044861Y0068575D01*
X0044861Y0069363D01*
X0047815Y0069363D01*
X0047815Y0068771D02*
X0044861Y0068771D01*
X0044861Y0068967D02*
X0047815Y0068967D01*
X0047815Y0069163D02*
X0044861Y0069163D01*
X0044861Y0069359D02*
X0047815Y0069359D01*
X0047815Y0067394D02*
X0047815Y0066606D01*
X0044861Y0066606D01*
X0044861Y0067394D01*
X0047815Y0067394D01*
X0047815Y0066802D02*
X0044861Y0066802D01*
X0044861Y0066998D02*
X0047815Y0066998D01*
X0047815Y0067194D02*
X0044861Y0067194D01*
X0044861Y0067390D02*
X0047815Y0067390D01*
X0047815Y0065425D02*
X0047815Y0064637D01*
X0044861Y0064637D01*
X0044861Y0065425D01*
X0047815Y0065425D01*
X0047815Y0064833D02*
X0044861Y0064833D01*
X0044861Y0065029D02*
X0047815Y0065029D01*
X0047815Y0065225D02*
X0044861Y0065225D01*
X0044861Y0065421D02*
X0047815Y0065421D01*
X0047815Y0063457D02*
X0047815Y0062669D01*
X0044861Y0062669D01*
X0044861Y0063457D01*
X0047815Y0063457D01*
X0047815Y0062865D02*
X0044861Y0062865D01*
X0044861Y0063061D02*
X0047815Y0063061D01*
X0047815Y0063257D02*
X0044861Y0063257D01*
X0044861Y0063453D02*
X0047815Y0063453D01*
D11*
X0041810Y0064047D03*
X0039054Y0064047D03*
X0039054Y0069953D03*
X0041810Y0069953D03*
D12*
X0040432Y0067000D03*
D13*
X0056682Y0063125D03*
X0056682Y0057375D03*
X0056682Y0049375D03*
X0056682Y0071125D03*
D14*
X0056322Y0082043D03*
X0054354Y0082043D03*
X0052385Y0082043D03*
X0050417Y0082043D03*
X0048448Y0082043D03*
X0046480Y0082043D03*
X0044511Y0082043D03*
X0042543Y0082043D03*
D15*
X0034382Y0082350D02*
X0034332Y0081905D01*
X0034184Y0081482D01*
X0033946Y0081103D01*
X0033629Y0080786D01*
X0033250Y0080548D01*
X0032827Y0080400D01*
X0032382Y0080350D01*
X0031960Y0080398D01*
X0031558Y0080538D01*
X0031198Y0080765D01*
X0030897Y0081065D01*
X0030671Y0081426D01*
X0030530Y0081827D01*
X0030482Y0082250D01*
X0030482Y0086250D01*
X0030530Y0086673D01*
X0030671Y0087074D01*
X0030897Y0087435D01*
X0031198Y0087735D01*
X0031558Y0087962D01*
X0031960Y0088102D01*
X0032382Y0088150D01*
X0032827Y0088100D01*
X0033250Y0087952D01*
X0033629Y0087714D01*
X0033946Y0087397D01*
X0034184Y0087018D01*
X0034332Y0086595D01*
X0034382Y0086150D01*
X0034382Y0082350D01*
X0034361Y0082156D02*
X0030493Y0082156D01*
X0030482Y0082754D02*
X0034382Y0082754D01*
X0034382Y0083353D02*
X0030482Y0083353D01*
X0030482Y0083951D02*
X0034382Y0083951D01*
X0034382Y0084550D02*
X0030482Y0084550D01*
X0030482Y0085148D02*
X0034382Y0085148D01*
X0034382Y0085747D02*
X0030482Y0085747D01*
X0030493Y0086345D02*
X0034360Y0086345D01*
X0034210Y0086944D02*
X0030625Y0086944D01*
X0031005Y0087542D02*
X0033801Y0087542D01*
X0032463Y0088141D02*
X0032302Y0088141D01*
X0030625Y0081557D02*
X0034211Y0081557D01*
X0033802Y0080959D02*
X0031003Y0080959D01*
X0032291Y0080360D02*
X0032474Y0080360D01*
X0032382Y0096850D02*
X0031960Y0096898D01*
X0031558Y0097038D01*
X0031198Y0097265D01*
X0030897Y0097565D01*
X0030671Y0097926D01*
X0030530Y0098327D01*
X0030482Y0098750D01*
X0030482Y0102750D01*
X0030530Y0103173D01*
X0030671Y0103574D01*
X0030897Y0103935D01*
X0031198Y0104235D01*
X0031558Y0104462D01*
X0031960Y0104602D01*
X0032382Y0104650D01*
X0032827Y0104600D01*
X0033250Y0104452D01*
X0033629Y0104214D01*
X0033946Y0103897D01*
X0034184Y0103518D01*
X0034332Y0103095D01*
X0034382Y0102650D01*
X0034382Y0098850D01*
X0034332Y0098405D01*
X0034184Y0097982D01*
X0033946Y0097603D01*
X0033629Y0097286D01*
X0033250Y0097048D01*
X0032827Y0096900D01*
X0032382Y0096850D01*
X0031430Y0097119D02*
X0033363Y0097119D01*
X0034018Y0097717D02*
X0030802Y0097717D01*
X0030534Y0098316D02*
X0034301Y0098316D01*
X0034382Y0098914D02*
X0030482Y0098914D01*
X0030482Y0099513D02*
X0034382Y0099513D01*
X0034382Y0100111D02*
X0030482Y0100111D01*
X0030482Y0100710D02*
X0034382Y0100710D01*
X0034382Y0101308D02*
X0030482Y0101308D01*
X0030482Y0101907D02*
X0034382Y0101907D01*
X0034382Y0102505D02*
X0030482Y0102505D01*
X0030522Y0103104D02*
X0034329Y0103104D01*
X0034068Y0103702D02*
X0030751Y0103702D01*
X0031302Y0104301D02*
X0033491Y0104301D01*
X0064482Y0102750D02*
X0064482Y0098750D01*
X0064530Y0098327D01*
X0064671Y0097926D01*
X0064897Y0097565D01*
X0065198Y0097265D01*
X0065558Y0097038D01*
X0065960Y0096898D01*
X0066382Y0096850D01*
X0066827Y0096900D01*
X0067250Y0097048D01*
X0067629Y0097286D01*
X0067946Y0097603D01*
X0068184Y0097982D01*
X0068332Y0098405D01*
X0068382Y0098850D01*
X0068382Y0102650D01*
X0068332Y0103095D01*
X0068184Y0103518D01*
X0067946Y0103897D01*
X0067629Y0104214D01*
X0067250Y0104452D01*
X0066827Y0104600D01*
X0066382Y0104650D01*
X0065960Y0104602D01*
X0065558Y0104462D01*
X0065198Y0104235D01*
X0064897Y0103935D01*
X0064671Y0103574D01*
X0064530Y0103173D01*
X0064482Y0102750D01*
X0064482Y0102505D02*
X0068382Y0102505D01*
X0068382Y0101907D02*
X0064482Y0101907D01*
X0064482Y0101308D02*
X0068382Y0101308D01*
X0068382Y0100710D02*
X0064482Y0100710D01*
X0064482Y0100111D02*
X0068382Y0100111D01*
X0068382Y0099513D02*
X0064482Y0099513D01*
X0064482Y0098914D02*
X0068382Y0098914D01*
X0068301Y0098316D02*
X0064534Y0098316D01*
X0064802Y0097717D02*
X0068018Y0097717D01*
X0067363Y0097119D02*
X0065430Y0097119D01*
X0064522Y0103104D02*
X0068329Y0103104D01*
X0068068Y0103702D02*
X0064751Y0103702D01*
X0065302Y0104301D02*
X0067491Y0104301D01*
X0066432Y0088200D02*
X0066010Y0088152D01*
X0065608Y0088012D01*
X0065248Y0087785D01*
X0064947Y0087485D01*
X0064721Y0087124D01*
X0064580Y0086723D01*
X0064532Y0086300D01*
X0064532Y0082300D01*
X0064580Y0081877D01*
X0064721Y0081476D01*
X0064947Y0081115D01*
X0065248Y0080815D01*
X0065608Y0080588D01*
X0066010Y0080448D01*
X0066432Y0080400D01*
X0066877Y0080450D01*
X0067300Y0080598D01*
X0067679Y0080836D01*
X0067996Y0081153D01*
X0068234Y0081532D01*
X0068382Y0081955D01*
X0068432Y0082400D01*
X0068432Y0086200D01*
X0068382Y0086645D01*
X0068234Y0087068D01*
X0067996Y0087447D01*
X0067679Y0087764D01*
X0067300Y0088002D01*
X0066877Y0088150D01*
X0066432Y0088200D01*
X0065977Y0088141D02*
X0066903Y0088141D01*
X0067901Y0087542D02*
X0065005Y0087542D01*
X0064657Y0086944D02*
X0068278Y0086944D01*
X0068416Y0086345D02*
X0064538Y0086345D01*
X0064532Y0085747D02*
X0068432Y0085747D01*
X0068432Y0085148D02*
X0064532Y0085148D01*
X0064532Y0084550D02*
X0068432Y0084550D01*
X0068432Y0083951D02*
X0064532Y0083951D01*
X0064532Y0083353D02*
X0068432Y0083353D01*
X0068432Y0082754D02*
X0064532Y0082754D01*
X0064549Y0082156D02*
X0068405Y0082156D01*
X0068243Y0081557D02*
X0064692Y0081557D01*
X0065103Y0080959D02*
X0067802Y0080959D01*
D16*
X0062032Y0082050D03*
X0036832Y0082050D03*
D17*
X0039982Y0082050D03*
X0058882Y0082050D03*
D18*
X0046875Y0056589D03*
X0046875Y0054030D03*
X0046875Y0051470D03*
X0046875Y0048911D03*
D19*
X0034966Y0049108D03*
X0034966Y0051470D03*
X0034966Y0054030D03*
X0034966Y0056392D03*
D20*
X0037230Y0052750D03*
D21*
X0033557Y0016500D03*
X0041557Y0016500D03*
D22*
X0057174Y0016500D03*
X0065441Y0016500D03*
M02*
