G75*
%MOIN*%
%OFA0B0*%
%FSLAX25Y25*%
%IPPOS*%
%LPD*%
%AMOC8*
5,1,8,0,0,1.08239X$1,22.5*
%
%ADD10C,0.00277*%
%ADD11C,0.01324*%
%ADD12R,0.05518X0.05124*%
%ADD13R,0.02664X0.04928*%
%ADD14R,0.01483X0.04928*%
%ADD15C,0.04762*%
%ADD16C,0.02959*%
%ADD17R,0.03156X0.02054*%
%ADD18R,0.09258X0.09652*%
%ADD19C,0.07000*%
%ADD20R,0.05124X0.05518*%
%ADD21R,0.05124X0.05124*%
D10*
X0036164Y0062509D02*
X0036164Y0063617D01*
X0036164Y0062509D02*
X0032890Y0062509D01*
X0032890Y0063617D01*
X0036164Y0063617D01*
X0036164Y0062785D02*
X0032890Y0062785D01*
X0032890Y0063061D02*
X0036164Y0063061D01*
X0036164Y0063337D02*
X0032890Y0063337D01*
X0032890Y0063613D02*
X0036164Y0063613D01*
X0036164Y0064477D02*
X0036164Y0065585D01*
X0036164Y0064477D02*
X0032890Y0064477D01*
X0032890Y0065585D01*
X0036164Y0065585D01*
X0036164Y0064753D02*
X0032890Y0064753D01*
X0032890Y0065029D02*
X0036164Y0065029D01*
X0036164Y0065305D02*
X0032890Y0065305D01*
X0032890Y0065581D02*
X0036164Y0065581D01*
X0036164Y0066446D02*
X0036164Y0067554D01*
X0036164Y0066446D02*
X0032890Y0066446D01*
X0032890Y0067554D01*
X0036164Y0067554D01*
X0036164Y0066722D02*
X0032890Y0066722D01*
X0032890Y0066998D02*
X0036164Y0066998D01*
X0036164Y0067274D02*
X0032890Y0067274D01*
X0032890Y0067550D02*
X0036164Y0067550D01*
X0036164Y0068415D02*
X0036164Y0069523D01*
X0036164Y0068415D02*
X0032890Y0068415D01*
X0032890Y0069523D01*
X0036164Y0069523D01*
X0036164Y0068691D02*
X0032890Y0068691D01*
X0032890Y0068967D02*
X0036164Y0068967D01*
X0036164Y0069243D02*
X0032890Y0069243D01*
X0032890Y0069519D02*
X0036164Y0069519D01*
X0036164Y0070383D02*
X0036164Y0071491D01*
X0036164Y0070383D02*
X0032890Y0070383D01*
X0032890Y0071491D01*
X0036164Y0071491D01*
X0036164Y0070659D02*
X0032890Y0070659D01*
X0032890Y0070935D02*
X0036164Y0070935D01*
X0036164Y0071211D02*
X0032890Y0071211D01*
X0032890Y0071487D02*
X0036164Y0071487D01*
X0047975Y0071491D02*
X0047975Y0070383D01*
X0044701Y0070383D01*
X0044701Y0071491D01*
X0047975Y0071491D01*
X0047975Y0070659D02*
X0044701Y0070659D01*
X0044701Y0070935D02*
X0047975Y0070935D01*
X0047975Y0071211D02*
X0044701Y0071211D01*
X0044701Y0071487D02*
X0047975Y0071487D01*
X0047975Y0069523D02*
X0047975Y0068415D01*
X0044701Y0068415D01*
X0044701Y0069523D01*
X0047975Y0069523D01*
X0047975Y0068691D02*
X0044701Y0068691D01*
X0044701Y0068967D02*
X0047975Y0068967D01*
X0047975Y0069243D02*
X0044701Y0069243D01*
X0044701Y0069519D02*
X0047975Y0069519D01*
X0047975Y0067554D02*
X0047975Y0066446D01*
X0044701Y0066446D01*
X0044701Y0067554D01*
X0047975Y0067554D01*
X0047975Y0066722D02*
X0044701Y0066722D01*
X0044701Y0066998D02*
X0047975Y0066998D01*
X0047975Y0067274D02*
X0044701Y0067274D01*
X0044701Y0067550D02*
X0047975Y0067550D01*
X0047975Y0065585D02*
X0047975Y0064477D01*
X0044701Y0064477D01*
X0044701Y0065585D01*
X0047975Y0065585D01*
X0047975Y0064753D02*
X0044701Y0064753D01*
X0044701Y0065029D02*
X0047975Y0065029D01*
X0047975Y0065305D02*
X0044701Y0065305D01*
X0044701Y0065581D02*
X0047975Y0065581D01*
X0047975Y0063617D02*
X0047975Y0062509D01*
X0044701Y0062509D01*
X0044701Y0063617D01*
X0047975Y0063617D01*
X0047975Y0062785D02*
X0044701Y0062785D01*
X0044701Y0063061D02*
X0047975Y0063061D01*
X0047975Y0063337D02*
X0044701Y0063337D01*
X0044701Y0063613D02*
X0047975Y0063613D01*
D11*
X0043080Y0062836D02*
X0043080Y0071164D01*
X0043080Y0062836D02*
X0037784Y0062836D01*
X0037784Y0071164D01*
X0043080Y0071164D01*
X0043080Y0064159D02*
X0037784Y0064159D01*
X0037784Y0065482D02*
X0043080Y0065482D01*
X0043080Y0066805D02*
X0037784Y0066805D01*
X0037784Y0068128D02*
X0043080Y0068128D01*
X0043080Y0069451D02*
X0037784Y0069451D01*
X0037784Y0070774D02*
X0043080Y0070774D01*
D12*
X0056682Y0071125D03*
X0056682Y0063125D03*
X0056682Y0057375D03*
X0056682Y0049375D03*
D13*
X0058881Y0082043D03*
X0062031Y0082043D03*
X0039984Y0082043D03*
X0036834Y0082043D03*
D14*
X0042543Y0082043D03*
X0044511Y0082043D03*
X0046480Y0082043D03*
X0048448Y0082043D03*
X0050417Y0082043D03*
X0052385Y0082043D03*
X0054354Y0082043D03*
X0056322Y0082043D03*
D15*
X0066440Y0082126D02*
X0066440Y0086488D01*
X0066440Y0098583D02*
X0066440Y0102945D01*
X0032425Y0102945D02*
X0032425Y0098583D01*
X0032425Y0086488D02*
X0032425Y0082126D01*
D16*
X0038054Y0086276D03*
X0060810Y0086276D03*
D17*
X0046875Y0056589D03*
X0046875Y0054030D03*
X0046875Y0051470D03*
X0046875Y0048911D03*
D18*
X0037230Y0052750D03*
D19*
X0040592Y0036500D03*
X0040592Y0026500D03*
X0049432Y0021500D03*
X0049432Y0031500D03*
X0049432Y0041500D03*
X0058272Y0036500D03*
X0058272Y0026500D03*
X0054432Y0006500D03*
X0044432Y0006500D03*
D20*
X0033557Y0016500D03*
X0041557Y0016500D03*
D21*
X0057174Y0016500D03*
X0065441Y0016500D03*
M02*
