%
M48
M72
T01C0.0155
T02C0.0197
T03C0.0236
T04C0.0256
T05C0.0394
%
T01
X3381Y6025
X3256Y7400
X4729Y7588
X5543Y7588
X5319Y8775
X4764Y8775
X5256Y6306
X4881Y6025
X5068Y5650
T02
X4006Y1125
X6568Y925
X4056Y6700
X4081Y7600
X3643Y7600
X3943Y9900
X4931Y9888
X5943Y9900
X6403Y7585
T03
X6644Y8431
X6644Y10076
X3242Y10076
X3242Y8431
T04
X3805Y8628
X6081Y8628
T05
X4943Y4150
X4943Y3150
X4943Y2150
X4059Y2650
X4059Y3650
X5827Y3650
X5827Y2650
X5443Y650
X4443Y650
M30
